<svg width="171" height="120" viewBox="0 0 171 120" fill="none" xmlns="http://www.w3.org/2000/svg">
<path d="M117.532 17.2777H53.3528C43.099 17.2777 34.7443 25.6324 34.7443 35.8862V97.4045H117.53C127.784 97.4045 136.139 89.0498 136.139 78.796V35.8843C136.139 25.6305 127.784 17.2758 117.53 17.2758L117.532 17.2777ZM64.1768 53.3539C60.5685 53.3539 57.5313 50.3153 57.5313 46.7084C57.5313 43.1 60.5699 40.0628 64.1768 40.0628C67.7852 40.0628 70.8224 43.1014 70.8224 46.7084C70.634 50.3167 67.7853 53.3539 64.1768 53.3539ZM85.4443 84.1138C76.5197 84.1138 69.4946 76.8984 69.4946 68.1642H101.584C101.394 76.8988 94.3677 84.1138 85.4446 84.1138H85.4443ZM106.9 53.3539C103.292 53.3539 100.255 50.3153 100.255 46.7084C100.255 43.1 103.293 40.0628 106.9 40.0628C110.508 40.0628 113.546 43.1014 113.546 46.7084C113.356 50.3167 110.507 53.3539 106.9 53.3539ZM170.887 57.3421C170.887 67.5959 163.482 76.3305 153.608 78.2281V78.6079C153.608 98.5441 137.468 114.684 117.532 114.684H98.7346C98.5447 117.723 96.0758 120 93.0388 120H77.6586C74.4301 120 71.9628 117.531 71.9628 114.304V106.899C71.9628 103.671 74.4317 101.203 77.6586 101.203H93.0388C96.0774 101.203 98.5447 103.482 98.7346 106.519H117.343C132.723 106.519 145.255 93.988 145.255 78.6079V35.8846C145.255 20.5045 132.723 7.97318 117.154 7.78361L53.3551 7.78214C37.7854 7.78214 25.2541 20.3134 25.2541 35.8832V78.6064H21.2674C9.4944 78.6079 0 69.1135 0 57.342C0 47.0882 7.40496 38.3536 17.2793 36.456V36.0762C17.2793 16.1399 33.4188 0 53.3555 0H117.346C137.282 0 153.422 16.1396 153.422 36.0762V36.456C163.675 38.3537 170.89 47.0882 170.89 57.342L170.887 57.3421Z" fill="#047469"/>
</svg>
