<svg width="121" height="120" viewBox="0 0 121 120" fill="none" xmlns="http://www.w3.org/2000/svg">
<path d="M33.9985 22.001H85.9974C87.102 22.001 87.9972 21.1058 87.9972 20.0012C87.9972 18.8966 87.102 18.0015 85.9974 18.0015H33.9985C32.894 18.0015 31.9978 18.8966 31.9978 20.0012C31.9978 21.1058 32.894 22.001 33.9985 22.001Z" fill="#047469"/>
<path d="M63.9982 54.0002H33.9985C32.894 54.0002 31.9978 54.8954 31.9978 56C31.9978 57.1046 32.894 57.9997 33.9985 57.9997H63.9982C65.1028 57.9997 65.998 57.1046 65.998 56C65.998 54.8954 65.1028 54.0002 63.9982 54.0002Z" fill="#047469"/>
<path d="M112.798 39.6609L104.558 34.2808C104.558 34.2808 116.439 22.4004 117.418 21.4012C119.07 20.0147 120.065 17.998 120.158 15.8425C120.251 13.688 119.436 11.5928 117.909 10.0685C116.382 8.54507 114.286 7.73228 112.131 7.82953C109.976 7.92779 107.961 8.92518 106.579 10.5805L101.999 15.1803V6.00029C101.994 4.41042 101.36 2.88701 100.236 1.76355C99.1119 0.63912 97.5885 0.00495421 95.9986 0H23.9999C22.41 0.00496209 20.8866 0.63912 19.7632 1.76355C18.6388 2.88699 18.0046 4.41037 18.0006 6.00029V32.6006L7.08001 39.7601C2.60522 43.1681 -0.0149257 48.4757 6.39683e-05 54.1006V101.9C0.00601842 106.698 1.91447 111.299 5.30768 114.692C8.70068 118.085 13.3017 119.994 18.1002 120H101.9C106.699 119.994 111.299 118.086 114.693 114.692C118.086 111.299 119.994 106.698 120 101.9V54.1006C120.003 48.4228 117.337 43.0748 112.8 39.6607L112.798 39.6609ZM109.418 13.4213C113.559 9.26105 118.738 14.4812 114.578 18.6009L113.998 19.1804L108.819 14.0009L109.418 13.4213ZM101.999 51.5002L111.059 43.4197C112.094 44.2772 112.991 45.2895 113.718 46.4199L101.999 56.8405V51.5002ZM8.91805 43.4197L17.9987 51.5002V56.8604L6.27809 46.4199C7.00456 45.2945 7.89477 44.2832 8.91805 43.4197ZM7.13863 110.759C6.27123 109.705 5.56959 108.525 5.05849 107.26L36.6994 78.8606L39.6996 81.5204L7.13863 110.759ZM71.5586 73.6785C68.3689 70.8561 64.2574 69.298 59.9988 69.298C55.7392 69.298 51.6277 70.8561 48.439 73.6785L42.6392 78.7984L21.9987 60.4185V5.99838C21.9987 4.89379 22.8939 3.99863 23.9985 3.99863H95.9971C96.5271 3.99863 97.0362 4.20903 97.4113 4.58417C97.7865 4.95932 97.9969 5.46843 97.9969 5.99838V19.1779L86.9175 30.2573V30.2582C86.6396 30.0915 86.322 30.0012 85.9975 29.9982H33.9986C32.894 29.9982 31.9979 30.8934 31.9979 31.998C31.9979 33.1026 32.894 33.9987 33.9986 33.9987H83.1774L76.5776 40.5784C76.2491 40.9952 76.0169 41.4806 75.8978 41.9976H33.9979C32.8933 41.9976 31.9972 42.8937 31.9972 43.9983C31.9972 45.1029 32.8933 45.9981 33.9979 45.9981H74.5564L72.0961 53.358C71.8669 54.0785 72.0584 54.8665 72.5933 55.4014C73.1273 55.9354 73.9152 56.1269 74.6358 55.8976L86.6351 51.8982H86.6361C86.914 51.7692 87.175 51.6084 87.4162 51.4179L97.9956 40.8176V60.4172L77.4562 78.7176L71.5586 73.6785ZM82.2986 49.1188L77.1589 50.8387L78.8788 45.699L82.2986 49.1188ZM113.317 110.119L80.416 81.4203L83.436 78.7407L115.217 106.461C114.799 107.781 114.156 109.019 113.317 110.12L113.317 110.119Z" fill="#047469"/>
</svg>
