<svg width="121" height="120" viewBox="0 0 121 120" fill="none" xmlns="http://www.w3.org/2000/svg">
<path d="M69.2374 30.1155H64.0803C63.8447 30.1155 63.6508 30.3085 63.6508 30.5451V35.4982C63.6508 35.7339 63.8437 35.9278 64.0803 35.9278H69.2374C70.1274 35.9278 70.9766 36.2023 71.6925 36.7194L79.2074 42.12V23.9243L71.6887 29.328C70.9688 29.8431 70.1214 30.1155 69.2374 30.1155Z" fill="#047469"/>
<path d="M83.7477 0.000512739C63.3485 0.000512739 46.754 14.7743 46.754 32.9339C46.754 37.8402 47.9383 42.5616 50.2742 46.9758C49.7969 49.3097 49.1744 51.5789 48.4196 53.7297C47.278 57.0083 45.8024 60.1634 44.0303 63.107C43.6893 63.6728 43.6694 64.3739 43.9766 64.9595C44.2839 65.5433 44.8756 65.9231 45.5349 65.9619C46.4149 66.0136 47.299 66.0395 48.1839 66.0395C51.2945 66.0395 54.4228 65.7213 57.5143 65.0858C60.6974 64.4285 63.769 63.452 66.6629 62.1772C67.5639 62.5988 68.4161 62.9528 69.2325 63.2422C73.8168 65.0013 78.7002 65.8922 83.7487 65.8922C101.705 65.8922 117.008 54.4764 120.131 38.7706C120.52 36.9339 120.717 34.9709 120.717 32.9334C120.716 14.7746 104.133 0 83.7489 0L83.7477 0.000512739ZM82.9801 43.5417C82.9801 44.6892 82.3446 45.7284 81.3244 46.2516C80.8838 46.4763 80.4085 46.5867 79.9352 46.5867C79.3087 46.5867 78.6882 46.3938 78.1582 46.0119L69.4871 39.7809C69.4155 39.7272 69.327 39.7003 69.2385 39.7003H64.0815C61.7645 39.7003 59.8801 37.8159 59.8801 35.499V30.5458C59.8801 28.2289 61.7645 26.3445 64.0815 26.3445H69.2385C69.327 26.3445 69.4155 26.3146 69.4891 26.2639L78.1602 20.0311C79.0899 19.3628 80.3041 19.2723 81.3244 19.7934C82.3447 20.3165 82.9801 21.3556 82.9801 22.5033L82.9801 43.5417ZM92.7768 41.9616C92.2945 41.9616 91.8112 41.7776 91.4433 41.4087C90.7065 40.6719 90.7065 39.4786 91.4433 38.7416C94.5966 35.5862 94.5966 30.4552 91.4433 27.3001C90.7065 26.5632 90.7065 25.37 91.4433 24.633C92.1802 23.8961 93.3734 23.8961 94.1104 24.633C98.7334 29.258 98.7334 36.7835 94.1104 41.4085C93.7415 41.7774 93.2592 41.9613 92.7769 41.9613L92.7768 41.9616ZM100.656 47.9569C100.289 48.3248 99.8052 48.5098 99.3229 48.5098C98.8407 48.5098 98.3574 48.3258 97.9894 47.9569C97.2526 47.2201 97.2526 46.0268 97.9894 45.2898C104.752 38.5249 104.752 27.5197 97.9894 20.7539C97.2526 20.017 97.2526 18.8237 97.9894 18.0868C98.7263 17.3498 99.9196 17.3499 100.657 18.0868C108.891 26.3225 108.891 39.7219 100.657 47.9577L100.656 47.9569Z" fill="#047469"/>
<path d="M81.6246 89.0353C77.2572 85.0806 70.4903 85.4197 66.5395 89.7891C65.6723 90.7417 64.2116 90.8849 63.2133 90.1153C57.376 85.5916 51.6462 80.7859 46.185 75.8297C40.9486 71.0754 35.8282 66.0658 30.9677 60.9395C30.0966 60.0227 30.0907 58.554 30.9548 57.6004C34.9075 53.233 34.5684 46.4641 30.2011 42.5114L16.4017 30.0277C13.8472 27.7217 9.88839 27.9186 7.57947 30.4702C-2.92143 42.0759 -2.4571 59.8218 8.63651 70.8726C15.7685 77.9717 23.1687 85.013 30.6398 91.7978C38.7073 99.1265 47.0881 106.364 55.5436 113.309C61.0117 117.8 67.6167 120 74.1855 120C82.1825 120 90.1268 116.736 95.8904 110.363H95.8924C97.0101 109.125 97.5819 107.527 97.4984 105.86C97.4159 104.193 96.688 102.659 95.4499 101.54L81.6246 89.0353Z" fill="#047469"/>
</svg>
