<svg width="194" height="161" viewBox="0 0 194 161" fill="none" xmlns="http://www.w3.org/2000/svg">
<path d="M144.5 0V13.4172H161.158V27.9827H144.5V51.1994L129.935 57.0665V27.967H31.9244V131.923H129.935V114.227L144.5 109.461V131.97H161.158V146.536H144.5V160.472H129.935V146.536H31.9244V160.472H17.3589V146.536H0.701385V131.97H17.3589V27.9827H0.701385V13.4172H17.3589V0H31.9244V13.4172H129.935V0H144.5ZM135.519 72.8274C140.835 79.0877 144.579 85.8357 146.592 93.1184L189.266 61.9741C192.9 59.6776 195.118 57.5698 193.419 52.6308C192.396 51.0736 191.185 50.1141 189.785 49.7366C188.385 49.3591 186.797 49.5793 185.035 50.3972L135.519 72.8274ZM71.4053 120.299C84.3035 114.432 100.709 126.685 110.603 113.991C113.23 110.625 114.646 105.592 113.733 101.203C113.372 99.4259 112.632 97.7743 111.484 96.3902C110.965 95.7767 110.383 95.2104 109.707 94.6914C101.323 88.2423 90.3593 92.8038 83.6743 99.5832C77.5398 105.828 73.7176 114.385 71.4053 120.299ZM114.661 90.3029C117.099 92.3005 120.135 96.6418 120.245 100.763L142.959 94.943C140.741 86.9367 137.296 79.7798 131.775 74.1015C123.344 81.746 123.926 83.2875 114.661 90.3029ZM90.1234 72.4499L71.7357 92.4892V62.037H54.4175V46.7637H107.442V62.037H90.1234V72.4499Z" fill="#047469"/>
</svg>
