<svg width="170" height="146" viewBox="0 0 170 146" fill="none" xmlns="http://www.w3.org/2000/svg">
<path d="M151.786 0H18.2143C7.89286 0 0 7.89286 0 18.2143V127.5C0 137.821 7.89286 145.714 18.2143 145.714H151.786C162.107 145.714 170 137.821 170 127.5V18.2143C170 7.89286 162.107 0 151.786 0ZM61.3214 21.8571C61.9286 21.25 61.9286 20.6429 62.5357 20.0357C64.9643 17.6071 68.6071 17.6071 71.0357 20.0357C71.6429 20.6429 72.25 21.25 72.25 21.8571C72.8571 22.4643 72.8571 23.6786 72.8571 24.2857C72.8571 24.8929 72.8571 26.1071 72.25 26.7143C71.6429 27.3214 71.6429 27.9286 71.0357 28.5357C69.8214 29.75 68.6071 30.3571 66.7857 30.3571C66.1786 30.3571 64.9643 30.3571 64.3571 29.75C63.75 29.1429 63.1429 29.1429 62.5357 28.5357C61.9286 27.9286 61.3214 27.3214 61.3214 26.7143C60.7143 26.1071 60.7143 24.8929 60.7143 24.2857C60.7143 23.6786 60.7143 22.4643 61.3214 21.8571ZM43.1071 21.8571C43.7143 21.25 43.7143 20.6429 44.3214 20.0357C44.9286 19.4286 45.5357 18.8214 46.1429 18.8214C48.5714 17.6071 51 18.2143 52.8214 20.0357C53.4286 20.6429 54.0357 21.25 54.0357 21.8571C54.6429 22.4643 54.6429 23.6786 54.6429 24.2857C54.6429 26.1071 54.0357 27.3214 52.8214 28.5357C51.6071 29.75 50.3929 30.3571 48.5714 30.3571C46.75 30.3571 45.5357 29.75 44.3214 28.5357C43.1071 27.3214 42.5 26.1071 42.5 24.2857C42.5 23.6786 42.5 22.4643 43.1071 21.8571ZM26.1071 20.0357L26.7143 19.4286C27.3214 19.4286 27.3214 18.8214 27.9286 18.8214C28.5357 18.2143 28.5357 18.2143 29.1429 18.2143C29.75 18.2143 30.9643 18.2143 31.5714 18.2143C32.1786 18.2143 32.1786 18.2143 32.7857 18.8214C33.3929 18.8214 33.3929 19.4286 34 19.4286L34.6071 20.0357C35.2143 20.6429 35.8214 21.25 35.8214 21.8571C36.4286 22.4643 36.4286 23.6786 36.4286 24.2857C36.4286 24.8929 36.4286 26.1071 35.8214 26.7143C35.8214 27.3214 35.2143 27.9286 34.6071 28.5357C33.3929 29.75 32.1786 30.3571 30.3571 30.3571C28.5357 30.3571 27.3214 29.75 26.1071 28.5357C24.8929 27.3214 24.2857 26.1071 24.2857 24.2857C24.2857 22.4643 24.8929 21.25 26.1071 20.0357ZM91.0714 115.357C91.0714 119 88.6429 121.429 85 121.429H24.2857C20.6429 121.429 18.2143 119 18.2143 115.357V110.5L60.1071 91.6786L91.0714 112.321V115.357ZM91.0714 97.75L64.3571 79.5357C62.5357 78.3214 60.7143 78.3214 58.2857 78.9286L18.2143 97.1429V54.6429C18.2143 51 20.6429 48.5714 24.2857 48.5714H85C88.6429 48.5714 91.0714 51 91.0714 54.6429V97.75ZM151.786 115.357C151.786 119 149.357 121.429 145.714 121.429H109.286C105.643 121.429 103.214 119 103.214 115.357V97.1429C103.214 93.5 105.643 91.0714 109.286 91.0714H145.714C149.357 91.0714 151.786 93.5 151.786 97.1429V115.357ZM145.714 85H127.5C123.857 85 121.429 82.5714 121.429 78.9286C121.429 75.2857 123.857 72.8571 127.5 72.8571H145.714C149.357 72.8571 151.786 75.2857 151.786 78.9286C151.786 82.5714 149.357 85 145.714 85ZM145.714 66.7857H109.286C105.643 66.7857 103.214 64.3571 103.214 60.7143C103.214 57.0714 105.643 54.6429 109.286 54.6429H145.714C149.357 54.6429 151.786 57.0714 151.786 60.7143C151.786 64.3571 149.357 66.7857 145.714 66.7857Z" fill="#047469"/>
</svg>
