<svg width="136" height="97" viewBox="0 0 136 97" fill="none" xmlns="http://www.w3.org/2000/svg">
<path d="M135.238 4.00137V33.6187C135.238 36.1206 132.601 37.7435 130.37 36.594C124.69 33.6187 118.198 31.9959 111.571 31.9959C100.685 31.9959 90.0686 36.4587 82.4952 44.2349C75.0571 51.8082 71 61.8835 71 72.5673C71 78.0444 73.1638 85.0768 75.8686 90.9597C76.9505 93.3263 75.3276 96.2339 72.6905 96.2339H39.2867C17.581 96.2339 0 78.653 0 56.9473V4.00137C0 2.10804 1.48762 0.620483 3.38095 0.620483H131.857C133.75 0.620483 135.238 2.10804 135.238 4.00137Z" fill="#047469"/>
</svg>
