<svg width="154" height="154" viewBox="0 0 154 154" fill="none" xmlns="http://www.w3.org/2000/svg">
<path fill-rule="evenodd" clip-rule="evenodd" d="M64.6601 144.375C64.6601 139.059 68.9695 134.75 74.2851 134.75H143.882C149.197 134.75 153.507 139.059 153.507 144.375C153.507 149.691 149.197 154 143.882 154H74.2851C68.9695 154 64.6601 149.691 64.6601 144.375ZM64.6601 109.083C64.6601 103.768 68.9695 99.4583 74.2851 99.4583H143.882C149.197 99.4583 153.507 103.768 153.507 109.083C153.507 114.399 149.197 118.708 143.882 118.708H74.2851C68.9695 118.708 64.6601 114.399 64.6601 109.083ZM64.6601 73.7917C64.6601 68.4761 68.9695 64.1667 74.2851 64.1667H143.882C149.197 64.1667 153.507 68.4761 153.507 73.7917C153.507 79.1072 149.197 83.4167 143.882 83.4167H74.2851C68.9695 83.4167 64.6601 79.1072 64.6601 73.7917ZM115.5 44.9167H64.1667C53.5352 44.9167 44.9167 53.5352 44.9167 64.1667V115.5H19.25C8.61855 115.5 0 106.882 0 96.25V19.25C0 8.61855 8.61855 0 19.25 0H96.25C106.882 0 115.5 8.61855 115.5 19.25V44.9167Z" fill="#047469"/>
</svg>
