<svg width="188" height="203" viewBox="0 0 188 203" fill="none" xmlns="http://www.w3.org/2000/svg">
<path d="M0.407672 42.0228C0.961845 32.4916 8.51261 25.2882 17.94 23.7783C27.2481 22.2875 38.9032 20.108 47.9849 17.3892C59.4055 13.9706 74.895 7.26289 84.6693 2.8272C90.5964 0.137516 97.4037 0.137516 103.331 2.8272C113.105 7.26289 128.595 13.9706 140.015 17.3892C149.097 20.108 160.752 22.2875 170.06 23.7783C179.488 25.2882 187.038 32.4916 187.592 42.0228C189.786 79.7544 186.076 173.311 99.8644 201.78C96.1006 203.023 91.8996 203.023 88.1358 201.78C1.92407 173.311 -1.78586 79.7544 0.407672 42.0228Z" fill="#047469"/>
</svg>
