<?xml version="1.0" encoding="UTF-8"?>
<svg xmlns="http://www.w3.org/2000/svg" version="1.1" viewBox="0 0 800 800">
  <defs>
    <style>
      .cls-1 {
        fill: #047469;
      }
    </style>
  </defs>
  <!-- Generator: Adobe Illustrator 28.6.0, SVG Export Plug-In . SVG Version: 1.2.0 Build 709)  -->
  <g>
    <g id="Layer_1">
      <g id="Layer_1-2" data-name="Layer_1">
        <path class="cls-1" d="M382.2,214.8c-40.9,0-74.1,33.2-74.1,74.1s33.2,74.1,74.1,74.1,74.1-33.2,74.1-74.1-33.2-74.1-74.1-74.1h0ZM382.2,335.7c-25.8,0-46.8-21-46.8-46.8s21-46.8,46.8-46.8,46.8,21,46.8,46.8-21,46.8-46.8,46.8Z"/>
        <path class="cls-1" d="M706.4,192.3c-26.8,0-48.6,21.8-48.6,48.6s21.8,48.6,48.6,48.6,48.6-21.8,48.6-48.6-21.8-48.6-48.6-48.6h0ZM706.4,262.1c-11.7,0-21.3-9.5-21.3-21.3s9.5-21.3,21.3-21.3,21.3,9.5,21.3,21.3-9.5,21.3-21.3,21.3Z"/>
        <path class="cls-1" d="M745,61.6h-198.6c-30.3,0-55,24.7-55,55v62.7H58.3C26.1,179.3,0,205.5,0,237.7v350.6c0,32.2,26.2,58.4,58.4,58.4h209.1l-18.4,74.9v.2c0,.3-.1.7-.2,1v2h0v1.4c0,.5.1,1,.2,1.5v.2c0,.4.2.8.3,1.2,0,0,0,.2.1.3.1.3.3.7.4,1,0,0,.1.3.2.4.1.3.3.6.5.9,0,0,.2.3.3.4.2.3.4.5.6.8,0,0,.1.2.2.3h0c.2.4.5.7.8,1,0,0,.1.2.2.2.3.3.7.7,1.1,1,0,0,.2.2.3.2.3.2.6.4.9.6.1,0,.3.2.4.2.3.2.6.3.9.5.1,0,.3,0,.4.2.3,0,.6.3.9.4.1,0,.3,0,.4.2.3,0,.7.2,1,.3.1,0,.3,0,.4,0,.4,0,.7,0,1.1.2h274.6c7.5,0,13.7-6.1,13.7-13.7s-6.1-13.7-13.7-13.7h-90.7l15.9-64.5h238.8c28.8,0,52.2-23.4,52.2-52.2v-118.1c27.4-3.1,48.8-26.4,48.8-54.6V116.6c0-30.3-24.7-55-55-55ZM562.4,116.6c0-15.3,12.4-27.7,27.7-27.7h154.9c15.3,0,27.7,12.4,27.7,27.7v16.1h-210.3v-16.1ZM562.4,160h210.3v216.6h-6.5l-68.7-75.6c-2.6-2.8-6.3-4.5-10.1-4.5s-7.5,1.6-10.1,4.5l-19.5,21.5-48.4-53.3c-2.6-2.8-6.3-4.5-10.1-4.5s-7.5,1.6-10.1,4.5l-26.7,29.3v-138.4h-.1ZM729.3,376.5h-22.3l-30.8-33.9,11.2-12.3,41.9,46.1h0ZM562.4,337.9l.5.5,36.2-39.8,70.9,78h-107.6v-38.6h0ZM518.7,116.6c0-13.9,10.3-25.5,23.7-27.4-4.7,8.1-7.3,17.4-7.3,27.4v305.1c0,10,2.7,19.3,7.3,27.4-13.4-1.9-23.7-13.5-23.7-27.4V116.6h0ZM86.4,486.6l109.9-112.9,146,160.6H86.4v-47.7h0ZM316.4,465.3l32.8-36.1,95.6,105.2h-65.6l-62.8-69.1h0ZM65.4,619.3h-7.1c-17.1,0-31-13.9-31-31V237.6c0-17.1,13.9-31,31-31h7.1c-4,7.4-6.3,15.9-6.3,24.9v362.9c0,9,2.3,17.5,6.3,24.9h0ZM416.2,711.1h-136.5l15.9-64.5h136.5l-15.9,64.5ZM723.9,594.4c0,13.7-11.2,24.9-24.9,24.9H111.3c-13.7,0-24.9-11.2-24.9-24.9v-32.8h637.5v32.8ZM723.9,534.3h-242.2l-122.4-134.7c-2.6-2.8-6.3-4.5-10.1-4.5s-7.5,1.6-10.1,4.5l-41.2,45.3-91.3-100.4c-2.5-2.8-6.1-4.4-9.9-4.5-3.8,0-7.4,1.4-10,4.1l-100.4,103.2v-216c0-13.7,11.1-24.9,24.9-24.9h380.1v215.1c0,30.3,24.7,55,55,55h177.5v57.7h.1ZM772.7,421.7c0,15.3-12.4,27.7-27.7,27.7h-155c-15.2,0-27.6-12.5-27.6-27.7v-17.8h210.3v17.8h0Z"/>
      </g>
    </g>
  </g>
</svg>