<svg width="171" height="37" viewBox="0 0 171 37" fill="none" xmlns="http://www.w3.org/2000/svg">
<g clip-path="url(#clip0_65_45)">
<g style="mix-blend-mode:lighten">
<path d="M10.2192 2.64987V15.6244L7.10476 17.1947L3.79572 18.8435V0L7.10476 1.37401L10.2192 2.64987Z" fill="#90D39E"/>
</g>
<g style="mix-blend-mode:lighten">
<path d="M16.7399 13.0531C10.1802 13.0531 4.86627 18.4117 4.86627 25.0265C4.86627 31.6414 10.1802 37 16.7399 37C23.2996 37 28.6136 31.6414 28.6136 25.0265C28.6136 18.4117 23.2996 13.0531 16.7399 13.0531ZM16.7399 31.7003C13.0805 31.7003 10.1218 28.7167 10.1218 25.0265C10.1218 21.3363 13.0805 18.3528 16.7399 18.3528C20.3993 18.3528 23.358 21.3363 23.358 25.0265C23.358 28.7167 20.3993 31.7003 16.7399 31.7003Z" fill="#90D39E"/>
</g>
<g style="mix-blend-mode:lighten">
<path d="M19.3677 13.3475C18.0635 13.426 15.3579 13.6812 12.4576 15.6048C11.718 16.0955 9.28483 17.8228 7.59137 21.1008C5.62541 24.9088 5.85899 28.5008 6.03417 29.9337C5.83952 31.1507 5.6838 32.5247 5.64487 34.0557C5.62541 35.0371 5.64487 35.9597 5.6838 36.8037H2.46554e-05C-0.0194403 35.7045 2.46622e-05 33.9772 0.194675 31.8966C0.700765 26.8716 1.4015 20.3353 5.83952 16.3899C8.87606 13.6812 12.7107 13.0531 15.611 13.0531C17.3044 13.0531 18.6864 13.2493 19.3677 13.3475Z" fill="#90D39E"/>
</g>
<g style="mix-blend-mode:lighten">
<path d="M40.1174 14.7411C37.3533 14.7411 35.1538 15.644 33.4993 17.4695C31.8448 19.2753 31.0272 21.7093 31.0272 24.7714V36.313H38.8911V26.3024C38.8911 24.104 39.6113 23.0048 41.0322 23.0048C42.4532 23.0048 41.9666 23.1618 42.531 23.4759V14.9963C41.5578 14.8393 40.7597 14.7607 40.1368 14.7607L40.1174 14.7411Z" fill="#90D39E"/>
<path d="M62.5995 17.7639C60.653 15.7618 57.9668 14.7607 54.5799 14.7607C51.193 14.7607 48.9545 15.8207 46.8328 17.9602C44.7111 20.0997 43.6406 22.6907 43.6406 25.7528C43.6406 28.8149 44.6917 31.5236 46.7939 33.6042C48.8961 35.6849 51.5239 36.7448 54.6772 36.7448C57.8305 36.7448 55.8062 36.6859 56.4485 36.5682V28.3634C55.8646 28.7363 55.2222 28.913 54.541 28.913C53.8597 28.913 53.0032 28.6382 52.4582 28.069C51.9132 27.4997 51.6407 26.7931 51.6407 25.9098C51.6407 25.0265 51.9521 24.3592 52.5361 23.7507C53.1395 23.1422 53.8597 22.8477 54.6772 22.8477C55.4947 22.8477 56.3123 23.1814 56.8573 23.8488C57.4023 24.5162 57.6748 25.3995 57.6748 26.5183V36.2934H65.5387V25.9294C65.5387 22.4748 64.5654 19.7464 62.5995 17.7443V17.7639Z" fill="#90D39E"/>
<path d="M86.6582 18.0191C84.8479 15.8403 82.4537 14.7411 79.4561 14.7411C76.4585 14.7411 74.6288 15.6833 72.8185 17.5676C71.0083 19.452 70.1129 21.7682 70.1129 24.5358V36.313H77.9573V24.3788C77.9573 23.1618 78.4439 22.5533 79.4366 22.5533C80.4294 22.5533 80.9354 23.1618 80.9354 24.3788V36.313H88.7993V25.1639C88.7993 22.1215 88.0986 19.7464 86.6776 18.0191H86.6582Z" fill="#90D39E"/>
<path d="M106.259 7.4V24.7125C106.259 27.5194 105.247 28.9326 103.242 28.9326C101.237 28.9326 101.685 28.6382 101.082 28.0493C100.478 27.4605 100.186 26.7538 100.186 25.9491C100.186 25.1443 100.478 24.3788 101.062 23.7703C101.646 23.1618 102.347 22.8674 103.145 22.8674C103.943 22.8674 104.43 23.1225 105.072 23.6329V14.8981C104.138 14.8196 103.437 14.7607 102.97 14.7607C100.05 14.7607 97.5391 15.8403 95.3979 18.0191C93.2763 20.1979 92.2057 22.7692 92.2057 25.7528C92.2057 28.7363 93.2763 31.4255 95.4174 33.5454C97.5586 35.6653 100.186 36.7252 103.32 36.7252C106.454 36.7252 104.157 36.7056 104.585 36.6467C105.714 36.5093 106.824 36.1952 107.914 35.6849C109.413 34.9979 110.639 34.0557 111.593 32.8976C113.267 30.8562 114.104 28.226 114.104 25.0069V7.4H106.259Z" fill="#90D39E"/>
<path d="M135.827 17.9798C133.705 15.8207 131.155 14.7607 128.196 14.7607C125.238 14.7607 122.376 15.8207 120.216 17.921C118.055 20.0408 116.985 22.6318 116.985 25.7332C116.985 28.8345 118.055 31.3666 120.216 33.5257C122.376 35.6849 124.965 36.7645 128.002 36.7645C131.038 36.7645 133.627 35.6849 135.788 33.5454C137.929 31.4058 139.019 28.7952 139.019 25.7528C139.019 22.7103 137.948 20.1586 135.846 18.0191L135.827 17.9798ZM130.123 27.9905C129.52 28.6186 128.819 28.9326 127.963 28.9326C127.106 28.9326 126.425 28.6186 125.841 27.9905C125.238 27.3623 124.946 26.6164 124.946 25.7528C124.946 24.8891 125.238 24.104 125.822 23.4955C126.406 22.887 127.126 22.5729 127.963 22.5729C128.8 22.5729 129.54 22.887 130.123 23.4955C130.707 24.104 130.999 24.8695 130.999 25.7528C130.999 26.6361 130.707 27.382 130.104 27.9905H130.123Z" fill="#90D39E"/>
<path d="M169.131 17.6462C167.613 15.8207 165.647 14.8589 163.195 14.7804C163.078 14.7804 162.961 14.7804 162.844 14.7804C160.781 14.7804 158.718 15.7618 156.674 17.7443C154.825 15.7618 152.742 14.7804 150.425 14.7804C148.109 14.7804 146.26 15.6048 144.664 17.2732C143.087 18.9416 142.289 20.9438 142.289 23.3188V36.313H150.153V24.948C150.153 23.3777 150.581 22.5926 151.457 22.5926C152.333 22.5926 152.275 22.7692 152.45 23.1029C152.645 23.4366 152.742 24.0451 152.742 24.9284V36.313H160.586V24.948C160.586 23.3777 161.034 22.5926 161.91 22.5926C162.786 22.5926 162.708 22.7692 162.903 23.1029C163.078 23.4366 163.175 24.0451 163.175 24.9284V36.313H171.019V24.2021C171.019 21.3363 170.397 19.1576 169.151 17.6658L169.131 17.6462Z" fill="#90D39E"/>
</g>
</g>
<defs>
<clipPath id="clip0_65_45">
<rect width="171" height="37" fill="white"/>
</clipPath>
</defs>
</svg>
