<svg width="751" height="621" viewBox="0 0 751 621" fill="none" xmlns="http://www.w3.org/2000/svg">
<path d="M66.9396 197.087V205.747" stroke="#1F3B51" stroke-width="2.8" stroke-miterlimit="10" stroke-linecap="round"/>
<path d="M66.9396 222.911V415.485C66.9396 441.309 83.9454 463.196 107.407 470.439" stroke="#1F3B51" stroke-width="2.8" stroke-miterlimit="10" stroke-linecap="round"/>
<path d="M115.753 472.486C118.587 472.959 121.579 473.116 124.413 473.116" stroke="#1F3B51" stroke-width="2.8" stroke-miterlimit="10" stroke-linecap="round"/>
<path d="M111.029 231.414C122.366 231.414 131.184 233.461 137.64 237.555C143.938 241.648 148.662 247.317 151.811 254.245C154.96 261.174 156.85 269.204 157.637 278.337C158.267 287.47 158.739 296.917 158.739 306.68C158.739 316.442 158.424 325.89 157.637 335.023C157.007 344.156 154.96 352.029 151.811 359.114C148.662 366.043 143.938 371.554 137.64 375.805C131.341 379.899 122.523 381.946 111.029 381.946H54.1853V231.571H111.029V231.414ZM101.109 353.603C104.888 353.603 107.88 353.131 110.241 352.029C112.446 350.926 114.178 348.722 115.438 345.415C116.697 342.109 117.327 337.227 117.8 331.086C118.114 324.945 118.272 316.757 118.272 306.68C118.272 296.602 118.114 288.414 117.8 282.273C117.485 276.132 116.697 271.251 115.438 267.944C114.178 264.638 112.446 262.433 110.241 261.331C108.037 260.229 105.045 259.756 101.109 259.756H93.2356V353.761H101.109V353.603Z" fill="#20A63D"/>
<path d="M260.932 231.414V263.378H211.017V289.044H257.782V319.749H211.017V349.667H262.821V381.631H171.809V231.256H260.932V231.414Z" stroke="#1F3B51" stroke-width="2.8" stroke-miterlimit="10" stroke-linecap="round"/>
<path d="M332.419 271.251C332.419 266.685 331.474 262.906 329.742 259.756C327.852 256.607 325.176 255.033 321.239 255.033C317.303 255.033 313.996 256.45 311.949 259.127C309.902 261.804 308.957 264.953 308.957 268.259C308.957 273.141 310.532 277.077 313.681 279.912C316.83 282.746 320.767 285.265 325.648 287.312C330.372 289.359 335.568 291.564 341.079 293.768C346.59 295.973 351.629 298.807 356.51 302.271C361.234 305.735 365.328 310.459 368.477 316.128C371.627 321.796 373.201 329.197 373.201 338.33C373.201 354.391 368.635 365.885 359.502 373.128C350.369 380.372 337.143 383.993 319.822 383.993C302.501 383.993 304.548 383.363 298.25 381.946C291.951 380.687 286.755 378.325 282.504 375.018C278.252 371.711 274.946 367.46 272.741 362.106C270.537 356.752 269.434 350.139 269.434 342.266V337.07H307.382V340.691C307.382 347.147 308.642 351.714 311.004 354.233C313.366 356.91 316.515 358.17 320.294 358.17C324.073 358.17 327.538 356.752 329.742 353.918C331.946 351.084 333.049 347.62 333.049 343.526C333.049 339.432 331.474 334.708 328.482 331.874C325.491 329.039 321.711 326.52 317.145 324.473C312.579 322.426 307.697 320.379 302.344 318.332C296.99 316.285 292.109 313.451 287.542 310.144C282.976 306.837 279.197 302.428 276.205 296.917C273.213 291.406 271.639 284.32 271.639 275.503C271.639 260.229 275.733 248.577 283.921 240.546C292.109 232.516 304.391 228.579 320.924 228.579C337.458 228.579 350.527 232.201 358.085 239.601C365.801 247.002 369.58 258.812 369.58 274.873H332.891V271.251H332.419Z" fill="#20A63D"/>
<path d="M421.542 231.414V381.789H382.334V231.414H421.542Z" fill="#20A63D"/>
<path d="M536.488 300.067V381.789H509.877L509.09 368.562H508.618C507.358 371.869 505.626 374.388 503.264 376.593C500.902 378.64 498.383 380.214 495.391 381.316C492.557 382.419 489.407 383.048 486.101 383.521C482.794 383.993 479.487 384.151 476.023 384.151C466.103 384.151 458.23 382.419 452.404 379.269C446.578 375.963 442.327 371.081 439.335 364.468C436.343 357.855 434.454 349.667 433.824 340.062C433.036 330.299 432.721 319.277 432.721 306.837C432.721 294.398 433.509 283.061 434.926 273.298C436.343 263.536 439.177 255.505 443.429 248.892C447.523 242.278 453.349 237.24 460.592 233.775C467.835 230.311 477.283 228.579 488.778 228.579C500.272 228.579 502.004 229.524 507.83 231.256C513.656 233.146 518.695 235.98 522.947 240.074C527.198 244.168 530.505 249.364 532.867 255.82C535.229 262.276 536.488 269.991 536.488 279.124H498.54C498.54 271.094 497.91 265.268 496.493 261.646C495.076 257.237 492.084 255.19 487.36 255.19C482.637 255.19 481.534 255.977 479.645 257.552C477.755 259.127 476.338 261.803 475.393 265.74C474.449 269.677 473.819 275.03 473.661 281.644C473.346 288.257 473.189 296.76 473.189 306.837C473.189 316.915 473.189 325.418 473.661 332.031C473.976 338.644 474.606 343.998 475.393 347.935C476.338 351.871 477.598 354.548 479.33 356.123C481.062 357.697 483.424 358.485 486.416 358.485C489.407 358.485 490.352 358.012 491.927 357.225C493.501 356.438 494.919 354.863 496.021 352.501C497.123 350.139 498.068 346.99 498.698 342.738C499.327 338.644 499.642 333.291 499.642 326.835H485.786V300.224H536.331L536.488 300.067Z" fill="#20A63D"/>
<path d="M593.017 231.414L618.368 324.158H618.84V231.414H655.529V381.789H612.542L586.403 288.887H585.931V381.789H549.243V231.414H593.017Z" fill="#20A63D"/>
<path d="M182.044 197.087C182.044 194.095 182.201 191.261 182.674 188.427" stroke="#1F3B51" stroke-width="2.8" stroke-miterlimit="10" stroke-linecap="round"/>
<path d="M188.027 171.578C197.475 152.526 217 139.456 239.674 139.456C271.481 139.456 297.305 165.28 297.305 197.087V415.643C297.305 447.45 323.129 473.273 354.936 473.273C386.743 473.273 412.566 447.45 412.566 415.643V197.087C412.566 165.28 438.39 139.456 470.197 139.456C502.004 139.456 527.828 165.28 527.828 197.087V415.643C527.828 447.45 553.651 473.273 585.459 473.273C617.266 473.273 633.012 456.425 640.412 432.964" stroke="#1F3B51" stroke-width="2.8" stroke-miterlimit="10" stroke-linecap="round"/>
<path d="M641.987 424.303C642.459 421.469 642.617 418.477 642.617 415.643" stroke="#1F3B51" stroke-width="2.8" stroke-miterlimit="10" stroke-linecap="round"/>
<path d="M151.339 508.86C140.316 497.837 133.388 482.564 133.388 465.558C133.388 448.552 140.159 433.436 151.339 422.256C162.518 411.076 177.635 404.306 194.64 404.306C211.646 404.306 226.762 411.076 237.942 422.256C249.122 433.436 255.893 448.552 255.893 465.558C255.893 482.564 249.122 497.68 237.942 508.86" stroke="#1F3B51" stroke-width="2.8" stroke-miterlimit="10" stroke-linecap="round"/>
<path d="M66.9396 197.087V415.643C66.9396 447.45 92.7632 473.274 124.57 473.274" stroke="#1F3B51" stroke-width="2.8" stroke-miterlimit="10" stroke-linecap="round"/>
<path d="M354.778 473.116C386.585 473.116 412.409 447.293 412.409 415.485V196.93C412.409 165.122 438.233 139.299 470.04 139.299" stroke="#1F3B51" stroke-width="2.8" stroke-miterlimit="10" stroke-linecap="round"/>
<path d="M131.814 143.235C128.349 151.581 123.153 158.982 117.012 165.28C110.714 171.578 103.313 176.617 94.9677 180.081C86.6223 183.545 77.4895 185.592 68.0419 185.592C58.5942 185.592 49.304 183.703 41.1161 180.081C32.7706 176.617 25.37 171.421 19.0715 165.28C12.7731 158.982 7.73434 151.581 4.2702 143.235" stroke="#1F3B51" stroke-width="2.8" stroke-miterlimit="10" stroke-linecap="round"/>
<path d="M197.16 231.414H260.932V256.292" stroke="#1F3B51" stroke-width="2.8" stroke-miterlimit="10" stroke-linecap="round"/>
<path d="M87.7768 164.415C114.29 153.433 126.881 123.036 115.899 96.523C104.916 70.0096 74.5201 57.4191 48.0067 68.4013C21.4933 79.3835 8.90284 109.78 19.885 136.293C30.8672 162.806 61.2634 175.397 87.7768 164.415Z" fill="#90D39E"/>
<path d="M67.8845 116.31V92.0605" stroke="#1F3B51" stroke-width="2.8" stroke-miterlimit="10" stroke-linecap="round"/>
<path d="M67.8845 67.8116V61.6706" stroke="#1F3B51" stroke-width="2.8" stroke-miterlimit="10" stroke-linecap="round"/>
<path d="M101.896 81.6681L106.305 77.2592" stroke="#1F3B51" stroke-width="2.8" stroke-miterlimit="10" stroke-linecap="round"/>
<path d="M116.068 115.522H122.208" stroke="#1F3B51" stroke-width="2.8" stroke-miterlimit="10" stroke-linecap="round"/>
<path d="M102.211 149.534L106.462 153.785" stroke="#1F3B51" stroke-width="2.8" stroke-miterlimit="10" stroke-linecap="round"/>
<path d="M68.3568 163.705V169.846" stroke="#1F3B51" stroke-width="2.8" stroke-miterlimit="10" stroke-linecap="round"/>
<path d="M34.3452 149.691L29.9363 154.1" stroke="#1F3B51" stroke-width="2.8" stroke-miterlimit="10" stroke-linecap="round"/>
<path d="M20.1738 115.837H14.0328" stroke="#1F3B51" stroke-width="2.8" stroke-miterlimit="10" stroke-linecap="round"/>
<path d="M34.0303 81.9831L29.7789 77.5742" stroke="#1F3B51" stroke-width="2.8" stroke-miterlimit="10" stroke-linecap="round"/>
<path d="M67.8845 116.624L95.4401 89.2263" stroke="#1F3B51" stroke-width="2.8" stroke-miterlimit="10" stroke-linecap="round"/>
<path d="M67.8845 129.221C75.0155 129.221 80.7963 123.441 80.7963 116.31C80.7963 109.179 75.0155 103.398 67.8845 103.398C60.7535 103.398 54.9727 109.179 54.9727 116.31C54.9727 123.441 60.7535 129.221 67.8845 129.221Z" fill="white" stroke="#1F3B51" stroke-width="2.8" stroke-miterlimit="10" stroke-linecap="round"/>
<path d="M237.155 467.133C237.155 443.671 218.102 424.618 194.64 424.618C171.179 424.618 152.126 443.671 152.126 467.133C152.126 490.594 161.259 497.522 174.8 504.766V527.912H214.481V504.766C228.022 497.68 237.155 483.508 237.155 467.133Z" fill="#90D39E"/>
<path d="M201.096 524.134V477.84C201.096 473.431 204.56 469.967 208.969 469.967H209.442C213.851 469.967 217.315 473.431 217.315 477.84C217.315 482.249 213.851 485.713 209.442 485.713H179.839C175.43 485.713 171.966 482.249 171.966 477.84C171.966 473.431 175.43 469.967 179.839 469.967H180.312C184.72 469.967 188.185 473.431 188.185 477.84V524.134" stroke="#1F3B51" stroke-width="2.8" stroke-miterlimit="10" stroke-linecap="round"/>
<path d="M218.417 526.18H170.864V546.021L180.784 548.54C184.248 551.689 188.814 556.885 193.853 556.885H195.27C200.309 556.885 204.875 551.689 208.34 548.54L218.26 546.021V526.18H218.417Z" fill="#4D6E84" stroke="#1F3B51" stroke-width="2.8" stroke-miterlimit="10" stroke-linecap="round"/>
<path d="M220.779 528.227H168.502C167.242 528.227 166.298 527.283 166.298 526.023C166.298 524.763 167.242 523.819 168.502 523.819H220.779C222.039 523.819 222.983 524.763 222.983 526.023C222.983 527.283 222.039 528.227 220.779 528.227Z" fill="#1F3B51" stroke="#1F3B51" stroke-width="2.8" stroke-miterlimit="10" stroke-linecap="round"/>
<path d="M220.779 538.305H168.502C167.242 538.305 166.298 537.36 166.298 536.101C166.298 534.841 167.242 533.896 168.502 533.896H220.779C222.039 533.896 222.983 534.841 222.983 536.101C222.983 537.36 222.039 538.305 220.779 538.305Z" fill="#1F3B51" stroke="#1F3B51" stroke-width="2.8" stroke-miterlimit="10" stroke-linecap="round"/>
<path d="M220.779 548.383H168.502C167.242 548.383 166.298 547.438 166.298 546.178C166.298 544.918 167.242 543.974 168.502 543.974H220.779C222.039 543.974 222.983 544.918 222.983 546.178C222.983 547.438 222.039 548.383 220.779 548.383Z" fill="#1F3B51" stroke="#1F3B51" stroke-width="2.8" stroke-miterlimit="10" stroke-linecap="round"/>
<path d="M271.481 203.386L279.197 210.314L279.984 211.101L271.324 203.386L260.144 231.886L287.228 217.557L341.867 156.305L350.842 145.912C353.204 141.818 352.416 136.307 348.48 132.843C348.48 132.843 348.322 132.843 348.165 132.686C344.228 129.379 338.875 129.221 335.253 132.056L325.963 142.291L271.324 203.543L271.481 203.386Z" fill="#B7D1CC"/>
<path d="M271.481 203.385L260.144 231.886L287.228 217.399L271.481 203.385Z" fill="#90D39E"/>
<path d="M271.481 203.385L260.144 231.886L287.228 217.399L271.481 203.385Z" stroke="#1F3B51" stroke-width="2.8" stroke-linecap="round" stroke-linejoin="round"/>
<path d="M260.144 231.886L269.592 226.847L264.081 221.966L260.144 231.886Z" fill="#1F3B51"/>
<path d="M279.197 210.314L287.228 217.399L341.867 156.147L333.679 148.904L325.963 142.133L271.481 203.385L279.197 210.314Z" stroke="#1F3B51" stroke-width="2.8" stroke-linecap="round" stroke-linejoin="round"/>
<path d="M325.963 142.133L333.679 148.904L341.867 156.147L350.999 145.755C353.361 141.661 352.574 136.15 348.637 132.685C348.637 132.685 348.48 132.685 348.322 132.528C344.386 129.221 339.032 129.064 335.411 131.898L326.12 142.133H325.963Z" stroke="#1F3B51" stroke-width="2.8" stroke-linecap="round" stroke-linejoin="round"/>
<path d="M333.678 148.904L279.197 210.314" stroke="#1F3B51" stroke-width="2.8" stroke-miterlimit="10"/>
<path d="M381.389 258.024H376.98C376.35 253.616 374.618 249.522 371.941 246.057L375.091 242.908C375.721 242.278 375.721 241.176 375.091 240.389L371.941 237.24C371.312 236.61 370.209 236.61 369.422 237.24L366.273 240.389C362.809 237.869 358.715 236.137 354.306 235.508V231.099C354.306 230.154 353.519 229.367 352.574 229.367H348.007C347.063 229.367 346.275 230.154 346.275 231.099V235.508C341.866 236.137 337.773 237.869 334.308 240.389L331.159 237.24C330.529 236.61 329.427 236.61 328.64 237.24L325.49 240.389C324.861 241.019 324.861 242.121 325.49 242.908L328.64 246.057C326.12 249.522 324.388 253.616 323.601 258.024H319.192C318.247 258.024 317.46 258.812 317.46 259.756V264.323C317.46 265.268 318.247 266.055 319.192 266.055H323.601C324.231 270.464 325.963 274.558 328.482 278.022L325.49 281.014C324.861 281.644 324.861 282.746 325.49 283.533L328.64 286.682C329.27 287.312 330.372 287.312 331.159 286.682L334.151 283.691C337.615 286.21 341.709 287.942 346.118 288.729V292.981C346.118 293.926 346.905 294.713 347.85 294.713H352.416C353.361 294.713 354.148 293.926 354.148 292.981V288.729C358.557 288.099 362.651 286.367 366.115 283.691L369.107 286.682C369.737 287.312 370.839 287.312 371.627 286.682L374.776 283.533C375.406 282.903 375.406 281.801 374.776 281.014L371.784 278.022C374.303 274.558 376.035 270.464 376.665 266.055H380.917C381.862 266.055 382.649 265.268 382.649 264.323V259.756C382.649 258.812 381.862 258.024 380.917 258.024H381.389ZM350.527 271.409C345.331 271.409 341.079 267.157 341.079 261.961C341.079 256.765 345.331 252.513 350.527 252.513C355.723 252.513 359.974 256.765 359.974 261.961C359.974 267.157 355.723 271.409 350.527 271.409Z" stroke="#1F3B51" stroke-width="2.8" stroke-miterlimit="10" stroke-linecap="round"/>
<path d="M474.004 539.615L483.425 536.036L436.064 411.359L426.643 414.938L474.004 539.615Z" fill="#90D39E"/>
<path d="M426.58 415.17L436.028 411.549L421.542 402.101L426.58 415.17Z" fill="#B7D1CC" stroke="#1F3B51" stroke-width="2.8" stroke-linecap="round" stroke-linejoin="round"/>
<path d="M351.932 489.584L348.353 499.005L473.03 546.365L476.609 536.945L351.932 489.584Z" fill="#90D39E"/>
<path d="M352.101 489.65L348.48 499.097L339.032 484.611L352.101 489.65Z" fill="#B7D1CC" stroke="#1F3B51" stroke-width="2.8" stroke-linecap="round" stroke-linejoin="round"/>
<path d="M402.804 528.07C404.378 523.661 406.268 519.252 408.63 515.001C410.992 510.749 413.669 506.34 416.818 502.246C419.967 498.152 423.431 494.058 427.21 490.279C430.989 486.5 435.083 483.036 439.177 479.887C443.271 476.738 447.68 474.061 451.932 471.699C456.341 469.337 460.749 467.448 465.001 465.873" stroke="#1F3B51" stroke-width="2.8" stroke-miterlimit="10" stroke-linecap="round"/>
<path d="M495.391 570.742L507.673 558.46L524.836 575.623C528.3 579.087 528.3 584.598 524.836 587.905C521.372 591.369 515.861 591.369 512.554 587.905L495.391 570.742Z" fill="#B7D1CC" stroke="#1F3B51" stroke-width="2.8" stroke-linecap="round" stroke-linejoin="round"/>
<path d="M488.62 572.316C499.925 572.316 509.09 563.152 509.09 551.847C509.09 540.541 499.925 531.377 488.62 531.377C477.315 531.377 468.15 540.541 468.15 551.847C468.15 563.152 477.315 572.316 488.62 572.316Z" fill="#90D39E"/>
<path d="M482.322 545.391C485.786 541.927 491.454 541.927 494.918 545.391C498.383 548.855 498.383 554.523 494.918 557.988C491.454 561.452 485.786 561.452 482.322 557.988C478.857 554.523 478.857 548.855 482.322 545.391Z" fill="white" stroke="#1F3B51" stroke-width="2.8" stroke-miterlimit="10" stroke-linecap="round"/>
<path d="M746.856 284.635V307.782V330.929V354.076H714.104H681.51H648.758H643.719V330.929V307.782V284.635V261.646H648.758H681.51H714.104L746.856 284.635Z" fill="#B7D1CC" stroke="#1F3B51" stroke-width="2.9" stroke-linecap="round" stroke-linejoin="round"/>
<path d="M746.856 284.635H714.104V261.646L746.856 284.635Z" fill="#B7D1CC" stroke="#1F3B51" stroke-width="2.9" stroke-linecap="round" stroke-linejoin="round"/>
<path d="M746.856 320.379V324.63V328.882V332.976V337.227V341.479V345.573V349.824V354.076H730.48H714.104H697.886H681.51H665.134H648.758H660.095H643.719V349.824V345.573V341.479V337.227V332.976V328.882V324.63V320.379H660.095H648.758H665.134H681.51L697.886 303.846L714.104 320.379L730.48 291.091L746.856 320.379Z" fill="#1F3B51"/>
<path d="M695.366 284.32C695.366 290.146 690.642 294.87 684.816 294.87C678.99 294.87 674.267 290.146 674.267 284.32C674.267 278.494 678.99 273.77 684.816 273.77C690.642 273.77 695.366 278.494 695.366 284.32Z" fill="white" stroke="#1F3B51" stroke-width="2.9" stroke-miterlimit="10" stroke-linecap="round"/>
<path d="M643.719 368.877V333.763V307.782V281.958V246.687" fill="#B7D1CC"/>
<path d="M643.719 368.877V333.763V307.782V281.958V246.687" stroke="#1F3B51" stroke-width="2.9" stroke-linecap="round" stroke-linejoin="round"/>
<path d="M734.732 230.626H686.076" stroke="#1F3B51" stroke-width="2.8" stroke-miterlimit="10" stroke-linecap="round"/>
<path d="M735.519 217.557L748.588 230.626L735.519 243.695" stroke="#1F3B51" stroke-width="2.9" stroke-linecap="round" stroke-linejoin="round"/>
<path d="M467.048 324.788C467.048 325.733 466.261 326.363 465.473 326.363H457.443C456.498 326.363 455.868 325.575 455.868 324.788C455.868 324.001 456.656 323.213 457.443 323.213H465.473C466.418 323.213 467.048 324.001 467.048 324.788ZM450.987 324.788C450.987 325.733 450.2 326.363 449.412 326.363H441.382C440.437 326.363 439.807 325.575 439.807 324.788C439.807 324.001 440.595 323.213 441.382 323.213H449.412C450.357 323.213 450.987 324.001 450.987 324.788ZM434.926 324.788C434.926 325.733 434.139 326.363 433.351 326.363H428.785C427.84 326.363 427.21 325.575 427.21 324.788C427.21 324.001 427.998 323.213 428.785 323.213H433.351C434.296 323.213 434.926 324.001 434.926 324.788Z" fill="#1F3B51"/>
<path d="M445.318 48.6013H408.63C407.685 48.6013 407.055 49.3886 407.055 50.1759C407.055 50.9632 407.843 51.7505 408.63 51.7505H445.318C446.263 51.7505 446.893 50.9632 446.893 50.1759C446.893 49.3886 446.106 48.6013 445.318 48.6013Z" fill="#1F3B51"/>
<path d="M396.978 48.6013H389.735C388.79 48.6013 388.16 49.3886 388.16 50.1759C388.16 50.9632 388.947 51.7505 389.735 51.7505H396.978C397.923 51.7505 398.553 50.9632 398.553 50.1759C398.553 49.3886 397.765 48.6013 396.978 48.6013Z" fill="#1F3B51"/>
<path d="M427.998 61.5131C427.998 62.4579 427.21 63.0877 426.423 63.0877H421.857C420.912 63.0877 420.282 62.3004 420.282 61.5131C420.282 60.7258 421.069 59.9385 421.857 59.9385H426.423C427.368 59.9385 427.998 60.7258 427.998 61.5131ZM415.401 61.5131C415.401 62.4579 414.614 63.0877 413.826 63.0877H405.796C404.851 63.0877 404.221 62.3004 404.221 61.5131C404.221 60.7258 405.008 59.9385 405.796 59.9385H413.826C414.771 59.9385 415.401 60.7258 415.401 61.5131ZM399.34 61.5131C399.34 62.4579 398.553 63.0877 397.765 63.0877H389.735C388.79 63.0877 388.16 62.3004 388.16 61.5131C388.16 60.7258 388.947 59.9385 389.735 59.9385H397.765C398.71 59.9385 399.34 60.7258 399.34 61.5131Z" fill="#1F3B51"/>
<path d="M466.891 185.277C466.891 188.427 469.41 190.946 472.559 190.946C475.708 190.946 478.228 188.427 478.228 185.277C478.228 182.128 475.708 179.609 472.559 179.609C469.41 179.609 466.891 182.128 466.891 185.277Z" fill="#1F3B51"/>
<path d="M339.347 369.349H302.659C301.714 369.349 301.084 370.137 301.084 370.924C301.084 371.711 301.871 372.499 302.659 372.499H339.347C340.292 372.499 340.922 371.711 340.922 370.924C340.922 370.137 340.135 369.349 339.347 369.349Z" fill="#1F3B51"/>
<path d="M291.007 369.349H283.763C282.819 369.349 282.189 370.137 282.189 370.924C282.189 371.711 282.976 372.499 283.763 372.499H291.007C291.951 372.499 292.581 371.711 292.581 370.924C292.581 370.137 291.794 369.349 291.007 369.349Z" fill="#1F3B51"/>
<path d="M322.184 382.104C322.184 383.048 321.397 383.678 320.609 383.678H316.043C315.098 383.678 314.468 382.891 314.468 382.104C314.468 381.316 315.256 380.529 316.043 380.529H320.609C321.554 380.529 322.184 381.316 322.184 382.104ZM309.43 382.104C309.43 383.048 308.642 383.678 307.855 383.678H299.824C298.88 383.678 298.25 382.891 298.25 382.104C298.25 381.316 299.037 380.529 299.824 380.529H307.855C308.8 380.529 309.43 381.316 309.43 382.104ZM293.369 382.104C293.369 383.048 292.581 383.678 291.794 383.678H283.763C282.819 383.678 282.189 382.891 282.189 382.104C282.189 381.316 282.976 380.529 283.763 380.529H291.794C292.739 380.529 293.369 381.316 293.369 382.104Z" fill="#1F3B51"/>
<path d="M695.051 150.006C694.107 150.006 693.477 150.794 693.477 151.581V155.36C693.477 156.305 694.264 156.934 695.051 156.934C695.839 156.934 696.626 156.147 696.626 155.36V151.581C696.626 150.636 695.839 150.006 695.051 150.006Z" fill="#1F3B51"/>
<path d="M690.8 146.227H687.021C686.076 146.227 685.446 147.014 685.446 147.802C685.446 148.589 686.234 149.376 687.021 149.376H690.8C691.745 149.376 692.375 148.589 692.375 147.802C692.375 147.014 691.587 146.227 690.8 146.227Z" fill="#1F3B51"/>
<path d="M695.051 138.512C694.107 138.512 693.477 139.299 693.477 140.086V143.865C693.477 144.81 694.264 145.44 695.051 145.44C695.839 145.44 696.626 144.653 696.626 143.865V140.086C696.626 139.141 695.839 138.512 695.051 138.512Z" fill="#1F3B51"/>
<path d="M702.924 146.07H699.145C698.201 146.07 697.571 146.857 697.571 147.644C697.571 148.432 698.358 149.219 699.145 149.219H702.924C703.869 149.219 704.499 148.432 704.499 147.644C704.499 146.857 703.712 146.07 702.924 146.07Z" fill="#1F3B51"/>
<path d="M624.666 17.1091C624.666 17.1091 625.926 26.0844 615.533 25.7695C615.533 25.7695 624.509 25.7695 624.194 34.2724C624.194 34.2724 624.981 27.659 633.169 26.2419C633.169 26.2419 626.241 27.8165 624.666 17.1091Z" fill="#1F3B51"/>
<path d="M243.611 296.917C243.611 296.917 244.398 302.428 237.942 302.271C237.942 302.271 243.453 302.271 243.296 307.467C243.296 307.467 243.768 303.373 248.807 302.586C248.807 302.586 244.556 303.531 243.611 297.075V296.917Z" fill="#1F3B51"/>
<path d="M576.326 93.1628H540.74C536.173 93.1628 532.394 89.3837 532.394 84.8173C532.394 80.251 536.016 76.6294 540.425 76.4719C540.425 69.5436 546.251 63.875 553.179 63.875C560.107 63.875 561.525 66.0795 563.886 69.7011C568.61 69.0712 573.019 72.063 574.121 76.4719H576.168C580.735 76.4719 584.514 80.251 584.514 84.8173C584.514 89.3837 580.735 93.1628 576.168 93.1628H576.326ZM540.74 78.9913C537.59 78.9913 534.914 81.6681 534.914 84.8173C534.914 87.9665 537.59 90.6434 540.74 90.6434H576.326C579.475 90.6434 582.152 87.9665 582.152 84.8173C582.152 81.6681 579.475 78.9913 576.326 78.9913H572.232V77.889C571.445 73.9525 567.823 71.2757 563.572 72.2205H562.627C562.627 72.3779 562.154 71.5906 562.154 71.5906C560.265 68.2839 556.801 66.2369 553.179 66.2369C547.511 66.2369 542.787 70.8033 542.787 76.6294C542.787 82.4554 542.787 77.2592 542.787 77.5741V78.8338H540.582L540.74 78.9913Z" fill="#1F3B51"/>
<path d="M576.326 93.9501H540.74C535.701 93.9501 531.607 89.8561 531.607 84.8174C531.607 79.7786 535.071 76.3145 539.637 75.8421C540.11 68.7563 546.093 63.2452 553.179 63.2452C560.265 63.2452 561.682 65.4497 564.359 69.0713C568.925 68.5989 573.334 71.4332 574.909 75.8421H576.483C581.522 75.8421 585.616 79.9361 585.616 84.9748C585.616 90.0136 581.522 94.1076 576.483 94.1076L576.326 93.9501ZM553.179 64.8198C546.723 64.8198 541.212 70.1735 541.212 76.6294V77.4167H540.425C536.331 77.4167 533.182 80.8808 533.182 84.9748C533.182 89.0688 536.488 92.5329 540.74 92.5329H576.326C580.42 92.5329 583.884 89.2263 583.884 84.9748C583.884 80.7234 580.577 77.4167 576.326 77.4167H573.649V76.7868C572.389 72.5354 568.453 70.016 564.044 70.6459H563.572L563.257 70.331C561.052 66.8668 557.273 64.8198 553.179 64.8198ZM576.326 91.4307H540.74C537.118 91.4307 534.126 88.439 534.126 84.8174C534.126 81.1958 537.118 78.204 540.74 78.204H542.157V77.7316C542.157 77.4167 542.157 77.1018 542.157 76.7868C542.157 70.6459 547.196 65.6071 553.337 65.6071C559.478 65.6071 561.052 67.8116 563.099 71.2757V71.5906C563.257 71.5906 563.572 71.5906 563.572 71.5906C565.776 71.1182 567.823 71.5906 569.713 72.6929C571.445 73.9526 572.704 75.8421 573.019 77.8891V78.204H576.483C580.105 78.204 583.097 81.1958 583.097 84.8174C583.097 88.439 580.105 91.4307 576.483 91.4307H576.326ZM540.74 79.7786C537.905 79.7786 535.701 81.9831 535.701 84.8174C535.701 87.6517 537.905 89.8561 540.74 89.8561H576.326C579.16 89.8561 581.365 87.6517 581.365 84.8174C581.365 81.9831 579.16 79.7786 576.326 79.7786H571.602L571.287 78.0465C570.972 76.3145 570.027 74.8973 568.61 73.9525C567.193 73.0078 565.461 72.6929 563.729 73.1652L562.312 73.4802L561.525 72.2205C559.793 69.2287 556.643 67.3392 553.179 67.3392C547.983 67.3392 543.574 71.5906 543.574 76.9443C543.574 82.298 543.574 77.5742 543.574 77.7316V79.9361C543.731 79.9361 540.582 79.9361 540.582 79.9361L540.74 79.7786Z" fill="#1F3B51"/>
<path d="M322.341 98.359H318.72V94.7374C318.72 93.7926 317.932 93.0053 316.988 93.0053C316.043 93.0053 315.255 93.7926 315.255 94.7374V98.359H311.634C310.689 98.359 309.902 99.1463 309.902 100.091C309.902 101.036 310.689 101.823 311.634 101.823H315.255V105.445C315.255 106.39 316.043 107.177 316.988 107.177C317.932 107.177 318.72 106.39 318.72 105.445V101.823H322.341C323.286 101.823 324.073 101.036 324.073 100.091C324.073 99.1463 323.286 98.359 322.341 98.359Z" fill="#1F3B51"/>
<path d="M497.123 305.263C497.123 308.884 494.289 311.719 490.667 311.719C487.045 311.719 484.211 308.884 484.211 305.263C484.211 301.641 487.045 298.807 490.667 298.807C494.289 298.807 497.123 301.641 497.123 305.263ZM493.816 305.263C493.816 303.531 492.399 301.956 490.51 301.956C488.62 301.956 487.203 303.373 487.203 305.263C487.203 307.152 488.62 308.569 490.51 308.569C492.399 308.569 493.816 307.152 493.816 305.263Z" fill="#1F3B51"/>
<path d="M586.876 427.925C585.931 427.925 585.301 428.712 585.301 429.499V433.278C585.301 434.223 586.088 434.853 586.876 434.853C587.663 434.853 588.45 434.066 588.45 433.278V429.499C588.45 428.555 587.663 427.925 586.876 427.925Z" fill="#1F3B51"/>
<path d="M582.624 424.146H578.845C577.901 424.146 577.271 424.933 577.271 425.72C577.271 426.508 578.058 427.295 578.845 427.295H582.624C583.569 427.295 584.199 426.508 584.199 425.72C584.199 424.933 583.412 424.146 582.624 424.146Z" fill="#1F3B51"/>
<path d="M586.876 416.43C585.931 416.43 585.301 417.217 585.301 418.005V421.784C585.301 422.729 586.088 423.358 586.876 423.358C587.663 423.358 588.45 422.571 588.45 421.784V418.005C588.45 417.06 587.663 416.43 586.876 416.43Z" fill="#1F3B51"/>
<path d="M594.749 423.831H590.97C590.025 423.831 589.395 424.618 589.395 425.405C589.395 426.193 590.182 426.98 590.97 426.98H594.749C595.693 426.98 596.323 426.193 596.323 425.405C596.323 424.618 595.536 423.831 594.749 423.831Z" fill="#1F3B51"/>
<path d="M627.816 264.48C628.76 264.48 629.39 263.693 629.39 262.906V259.127C629.39 258.182 628.603 257.552 627.816 257.552C627.028 257.552 626.241 258.339 626.241 259.127V262.906C626.241 263.85 627.028 264.48 627.816 264.48Z" fill="#1F3B51"/>
<path d="M632.067 268.259H635.846C636.791 268.259 637.421 267.472 637.421 266.685C637.421 265.898 636.633 265.11 635.846 265.11H632.067C631.122 265.11 630.492 265.898 630.492 266.685C630.492 267.472 631.28 268.259 632.067 268.259Z" fill="#1F3B51"/>
<path d="M627.816 275.975C628.76 275.975 629.39 275.188 629.39 274.4V270.621C629.39 269.676 628.603 269.047 627.816 269.047C627.028 269.047 626.241 269.834 626.241 270.621V274.4C626.241 275.345 627.028 275.975 627.816 275.975Z" fill="#1F3B51"/>
<path d="M619.943 268.417H623.722C624.666 268.417 625.296 267.63 625.296 266.842C625.296 266.055 624.509 265.268 623.722 265.268H619.943C618.998 265.268 618.368 266.055 618.368 266.842C618.368 267.63 619.155 268.417 619.943 268.417Z" fill="#1F3B51"/>
<path d="M645.609 603.179C645.609 603.179 646.868 612.154 636.476 611.839C636.476 611.839 645.451 611.839 645.136 620.342C645.136 620.342 645.924 613.729 654.112 612.312C654.112 612.312 647.183 613.886 645.609 603.179Z" fill="#1F3B51"/>
<path d="M464.686 402.574C464.686 402.574 465.473 408.085 459.018 407.927C459.018 407.927 464.529 407.927 464.371 413.123C464.371 413.123 464.844 409.029 469.882 408.242C469.882 408.242 465.631 409.187 464.686 402.731V402.574Z" fill="#1F3B51"/>
<path d="M683.714 505.238H648.128C643.562 505.238 639.783 501.459 639.783 496.893C639.783 492.326 643.404 488.705 647.813 488.705C647.813 481.776 653.639 476.108 660.567 476.108C667.496 476.108 668.913 478.312 671.275 481.934C675.999 481.304 680.407 484.296 681.51 488.705H683.557C688.123 488.705 691.902 492.484 691.902 497.05C691.902 501.617 688.123 505.396 683.557 505.396L683.714 505.238ZM647.971 491.224C644.821 491.224 642.144 493.901 642.144 497.05C642.144 500.199 644.821 502.876 647.971 502.876H683.557C686.706 502.876 689.383 500.199 689.383 497.05C689.383 493.901 686.706 491.224 683.557 491.224H679.463V490.122C678.675 486.185 675.054 483.508 670.802 484.453H669.858C669.858 484.611 669.385 483.823 669.385 483.823C667.496 480.517 664.031 478.47 660.41 478.47C654.741 478.47 650.018 483.036 650.018 488.862C650.018 494.688 650.018 489.492 650.018 489.807V491.067H647.813L647.971 491.224Z" fill="#1F3B51"/>
<path d="M683.714 506.025H648.128C643.089 506.025 638.995 501.931 638.995 496.893C638.995 491.854 642.459 488.39 647.026 487.917C647.498 480.832 653.482 475.321 660.567 475.321C667.653 475.321 669.07 477.525 671.747 481.147C676.471 480.674 680.722 483.509 682.297 487.917H683.872C688.91 487.917 693.004 492.011 693.004 497.05C693.004 502.089 688.91 506.183 683.872 506.183L683.714 506.025ZM660.567 476.895C654.112 476.895 648.6 482.249 648.6 488.705V489.492H647.813C643.719 489.492 640.57 492.956 640.57 497.05C640.57 501.144 643.877 504.608 648.128 504.608H683.714C687.808 504.608 691.272 501.302 691.272 497.05C691.272 492.799 687.966 489.492 683.714 489.492H681.037V488.862C679.778 484.611 675.684 482.091 671.432 482.721H670.96L670.645 482.406C668.44 478.942 664.661 476.895 660.567 476.895ZM683.714 503.664H648.128C644.506 503.664 641.515 500.672 641.515 497.05C641.515 493.429 644.506 490.437 648.128 490.437H649.545V489.964C649.545 489.649 649.545 489.335 649.545 489.02C649.545 482.879 654.584 477.84 660.725 477.84C666.866 477.84 668.441 480.044 670.487 483.508V483.823C670.645 483.823 670.96 483.823 670.96 483.823C673.164 483.351 675.211 483.823 677.101 484.926C678.833 486.185 680.093 488.075 680.408 490.122V490.437H683.872C687.493 490.437 690.485 493.429 690.485 497.05C690.485 500.672 687.493 503.664 683.872 503.664H683.714ZM647.971 492.011C645.136 492.011 642.932 494.216 642.932 497.05C642.932 499.884 645.136 502.089 647.971 502.089H683.557C686.391 502.089 688.596 499.884 688.596 497.05C688.596 494.216 686.391 492.011 683.557 492.011H678.833L678.518 490.279C678.203 488.547 677.258 487.13 675.841 486.185C674.424 485.241 672.692 484.926 670.96 485.398L669.543 485.713L668.755 484.453C667.023 481.462 663.874 479.572 660.41 479.572C655.214 479.572 650.805 483.823 650.805 489.177C650.805 494.531 650.805 489.807 650.805 489.964V492.169C650.962 492.169 647.813 492.169 647.813 492.169L647.971 492.011Z" fill="#1F3B51"/>
<path d="M153.386 2.4653C153.386 3.41006 152.598 4.03991 151.811 4.03991H143.781C142.836 4.03991 142.206 3.2526 142.206 2.4653C142.206 1.67799 142.993 0.890686 143.781 0.890686H151.811C152.756 0.890686 153.386 1.67799 153.386 2.4653ZM137.325 2.4653C137.325 3.41006 136.537 4.03991 135.75 4.03991H127.72C126.775 4.03991 126.145 3.2526 126.145 2.4653C126.145 1.67799 126.932 0.890686 127.72 0.890686H135.75C136.695 0.890686 137.325 1.67799 137.325 2.4653ZM121.264 2.4653C121.264 3.41006 120.476 4.03991 119.689 4.03991H115.123C114.178 4.03991 113.548 3.2526 113.548 2.4653C113.548 1.67799 114.335 0.890686 115.123 0.890686H119.689C120.634 0.890686 121.264 1.67799 121.264 2.4653Z" fill="#1F3B51"/>
<path d="M295.888 612.154H332.576C333.521 612.154 334.151 611.367 334.151 610.58C334.151 609.792 333.364 609.005 332.576 609.005H295.888C294.943 609.005 294.313 609.792 294.313 610.58C294.313 611.367 295.101 612.154 295.888 612.154Z" fill="#1F3B51"/>
<path d="M344.386 612.312H351.629C352.574 612.312 353.204 611.524 353.204 610.737C353.204 609.95 352.416 609.162 351.629 609.162H344.386C343.441 609.162 342.811 609.95 342.811 610.737C342.811 611.524 343.599 612.312 344.386 612.312Z" fill="#1F3B51"/>
<path d="M313.209 599.4C313.209 598.455 313.996 597.825 314.783 597.825H319.35C320.294 597.825 320.924 598.612 320.924 599.4C320.924 600.187 320.137 600.974 319.35 600.974H314.783C313.838 600.974 313.209 600.187 313.209 599.4ZM325.805 599.4C325.805 598.455 326.593 597.825 327.38 597.825H335.411C336.355 597.825 336.985 598.612 336.985 599.4C336.985 600.187 336.198 600.974 335.411 600.974H327.38C326.435 600.974 325.805 600.187 325.805 599.4ZM341.866 599.4C341.866 598.455 342.654 597.825 343.441 597.825H351.472C352.416 597.825 353.046 598.612 353.046 599.4C353.046 600.187 352.259 600.974 351.472 600.974H343.441C342.496 600.974 341.866 600.187 341.866 599.4Z" fill="#1F3B51"/>
<path d="M85.3626 539.407H81.741V535.785C81.741 534.841 80.9537 534.053 80.009 534.053C79.0642 534.053 78.2769 534.841 78.2769 535.785V539.407H74.6552C73.7105 539.407 72.9232 540.194 72.9232 541.139C72.9232 542.084 73.7105 542.871 74.6552 542.871H78.2769V546.493C78.2769 547.438 79.0642 548.225 80.009 548.225C80.9537 548.225 81.741 547.438 81.741 546.493V542.871H85.3626C86.3074 542.871 87.0947 542.084 87.0947 541.139C87.0947 540.194 86.3074 539.407 85.3626 539.407Z" fill="#1F3B51"/>
<path d="M527.041 483.981H523.419V480.359C523.419 479.415 522.632 478.627 521.687 478.627C520.742 478.627 519.955 479.415 519.955 480.359V483.981H516.333C515.388 483.981 514.601 484.768 514.601 485.713C514.601 486.658 515.388 487.445 516.333 487.445H519.955V491.067C519.955 492.011 520.742 492.799 521.687 492.799C522.632 492.799 523.419 492.011 523.419 491.067V487.445H527.041C527.985 487.445 528.773 486.658 528.773 485.713C528.773 484.768 527.985 483.981 527.041 483.981Z" fill="#1F3B51"/>
</svg>
