<?xml version="1.0" encoding="UTF-8"?>
<svg xmlns="http://www.w3.org/2000/svg" xmlns:xlink="http://www.w3.org/1999/xlink" viewBox="0 0 589.8 188.5">
  <defs>
    <style>
      .cls-1 {
        fill: url(#linear-gradient-10);
      }

      .cls-2 {
        fill: url(#linear-gradient-12);
      }

      .cls-3 {
        fill: #527ded;
      }

      .cls-4 {
        fill: url(#linear-gradient-2);
        mix-blend-mode: soft-light;
      }

      .cls-5 {
        fill: url(#linear-gradient-4);
      }

      .cls-6 {
        fill: url(#linear-gradient-3);
      }

      .cls-7 {
        isolation: isolate;
      }

      .cls-8 {
        fill: url(#linear-gradient-8);
      }

      .cls-9 {
        fill: url(#linear-gradient-7);
      }

      .cls-10 {
        fill: url(#linear-gradient-9);
      }

      .cls-11 {
        fill: url(#linear-gradient-11);
      }

      .cls-12 {
        fill: url(#linear-gradient-6);
      }

      .cls-13 {
        fill: url(#linear-gradient-5);
        mix-blend-mode: lighten;
      }

      .cls-14 {
        fill: url(#linear-gradient);
      }
    </style>
    <linearGradient id="linear-gradient" x1="36" y1="96" x2="36" y2="0" gradientUnits="userSpaceOnUse">
      <stop offset="0" stop-color="#5587f0"/>
      <stop offset=".9" stop-color="#5da9fa"/>
    </linearGradient>
    <linearGradient id="linear-gradient-2" x1="28" x2="28" xlink:href="#linear-gradient"/>
    <linearGradient id="linear-gradient-3" x1="0" y1="127" x2="99.5" y2="127" gradientUnits="userSpaceOnUse">
      <stop offset="0" stop-color="#5076ec"/>
      <stop offset=".9" stop-color="#5894f4"/>
    </linearGradient>
    <linearGradient id="linear-gradient-4" x1="50.2" y1="134.3" x2="133.9" y2="134.3" gradientUnits="userSpaceOnUse">
      <stop offset="0" stop-color="#5076ec"/>
      <stop offset=".9" stop-color="#5ea9fa"/>
    </linearGradient>
    <linearGradient id="linear-gradient-5" x1="0" y1="127" x2="80.2" y2="127" xlink:href="#linear-gradient"/>
    <linearGradient id="linear-gradient-6" x1="-14" y1="320.9" x2="107.6" y2="320.9" gradientTransform="translate(410.5 111.8) rotate(-100.9) scale(1 -1)" gradientUnits="userSpaceOnUse">
      <stop offset="0" stop-color="#527ded"/>
      <stop offset="1" stop-color="#5ea9fa"/>
    </linearGradient>
    <linearGradient id="linear-gradient-7" x1="162.1" y1="128.9" x2="197.2" y2="128.9" gradientTransform="matrix(1,0,0,1,0,0)" xlink:href="#linear-gradient-6"/>
    <linearGradient id="linear-gradient-8" x1="200.8" y1="129.6" x2="267.6" y2="129.6" gradientTransform="matrix(1,0,0,1,0,0)" xlink:href="#linear-gradient-6"/>
    <linearGradient id="linear-gradient-9" x1="281.5" y1="128.9" x2="338.6" y2="128.9" gradientTransform="matrix(1,0,0,1,0,0)" xlink:href="#linear-gradient-6"/>
    <linearGradient id="linear-gradient-10" x1="349" y1="118.4" x2="416" y2="118.4" gradientTransform="matrix(1,0,0,1,0,0)" xlink:href="#linear-gradient-6"/>
    <linearGradient id="linear-gradient-11" x1="424.7" y1="129.6" x2="492" y2="129.6" gradientTransform="matrix(1,0,0,1,0,0)" xlink:href="#linear-gradient-6"/>
    <linearGradient id="linear-gradient-12" x1="502" y1="129" x2="589.8" y2="129" gradientTransform="matrix(1,0,0,1,0,0)" xlink:href="#linear-gradient-6"/>
  </defs>
  <g class="cls-7">
    <g id="Layer_1">
      <g>
        <polygon class="cls-14" points="52.5 13.5 52.5 79.6 36.5 87.6 19.5 96 19.5 0 36.5 7 52.5 13.5"/>
        <path class="cls-3" d="M86,66.5c-33.7,0-61,27.3-61,61s27.3,61,61,61,61-27.3,61-61-27.3-61-61-61ZM86,161.5c-18.8,0-34-15.2-34-34s15.2-34,34-34,34,15.2,34,34-15.2,34-34,34Z"/>
        <polygon class="cls-4" points="36.5 7 36.5 87.6 19.5 96 19.5 0 36.5 7"/>
        <path class="cls-6" d="M99.5,68c-6.7.4-20.6,1.7-35.5,11.5-3.8,2.5-16.3,11.3-25,28-10.1,19.4-8.9,37.7-8,45-1,6.2-1.8,13.2-2,21-.1,5,0,9.7.2,14H0c-.1-5.6,0-14.4,1-25,2.6-25.6,6.2-58.9,29-79,15.6-13.8,35.3-17,50.2-17h0c8.7,0,15.8,1,19.3,1.5Z"/>
        <path class="cls-5" d="M117,168.5c-16.9,12.6-41,10-55-4-12-12.1-15.1-31.2-8.3-47.6-1.1,3.3-1.7,6.9-1.7,10.6,0,18.8,15.2,34,34,34s34-15.2,34-34-15.2-34-34-34-16.7,3.3-22.7,8.7c.6-.6,1.1-1.1,1.7-1.7,19.6-14.5,47.3-10.1,61,9,13.4,18.6,9.3,45.4-9,59Z"/>
        <path class="cls-13" d="M80.2,66.5c-6.9,4.3-17.4,9.9-32.2,17-10,6-33.7,31.4-33.7,103.7v.3H0c-.1-5.6,0-14.4,1-25,2.6-25.6,6.2-58.9,29-79,15.6-13.8,35.3-17,50.2-17Z"/>
        <path class="cls-12" d="M31.4,100c-13.3,27.6-3.1,61.2,20.8,77.3,20.5,13.8,48.5,13,70.1-1.2-4.5,2.5-9.4,4.3-14.6,5.3-26.8,5.1-52.6-12.4-57.8-39.2s12.4-52.6,39.2-57.8c26.8-5.1,56.2,11.9,57.8,39.2.7,12.4-2.1,23.7-8.2,33.7.7-.9,1.3-1.9,1.9-2.9,15.3-31.9,3.4-69.2-27.5-83.5-30.2-14-67.3-.8-81.6,29Z"/>
        <text/>
        <g>
          <path class="cls-9" d="M197.2,97v25.7c-1.7-.9-3.2-1.4-4.6-1.4-4.4,0-6.5,3.3-6.5,10v30.3h-24v-35c0-9.2,2.5-16.6,7.6-22.1,5-5.5,11.8-8.2,20.2-8.2s4.3.2,7.3.7Z"/>
          <path class="cls-8" d="M239.8,137.6v24.8c-2,.3-3.8.5-5.4.5-9.6,0-17.6-3.2-24.1-9.5-6.4-6.3-9.6-14.3-9.6-23.8s3.2-17.2,9.7-23.6,14.4-9.7,23.6-9.7,18.5,3,24.5,9.1,9,14.3,9,24.8v31.4h-24v-29.6c0-3.4-.8-6.1-2.5-8.1-1.6-2-3.9-3-6.6-3s-4.7.9-6.5,2.8-2.8,4-2.8,6.5.8,4.8,2.5,6.5c1.7,1.7,3.8,2.6,6.4,2.6s4-.6,5.8-1.7Z"/>
          <path class="cls-10" d="M338.6,161.6h-24v-36.1c0-3.7-1.5-5.5-4.6-5.5s-4.5,1.8-4.5,5.5v36.1h-24v-35.7c0-8.3,2.8-15.4,8.3-21.1,5.5-5.7,12.3-8.6,20.3-8.6s16.5,3.3,22,9.9c4.3,5.2,6.5,12.4,6.5,21.6v33.7Z"/>
          <path class="cls-1" d="M392,74h24v53.3c0,9.8-2.6,17.8-7.7,23.9-3,3.6-6.7,6.4-11.3,8.5-4.6,2.1-9.2,3.1-14,3.1-9.5,0-17.6-3.2-24.1-9.6-6.5-6.4-9.8-14.3-9.8-23.6s3.2-16.8,9.8-23.4c6.5-6.6,14.2-9.9,23.1-9.9s3.5.1,6.4.4v26.4c-2-1.5-3.9-2.3-5.9-2.3s-4.6.9-6.4,2.7c-1.8,1.8-2.7,4-2.7,6.6s.9,4.6,2.8,6.4c1.8,1.8,4,2.7,6.6,2.7,6.2,0,9.2-4.3,9.2-12.8v-52.4Z"/>
          <path class="cls-11" d="M459,96.3c9.1,0,16.8,3.3,23.3,9.8,6.5,6.5,9.7,14.3,9.7,23.5s-3.3,17.1-9.8,23.6c-6.6,6.5-14.5,9.8-23.8,9.8s-17.2-3.3-23.8-9.8c-6.6-6.5-9.9-14.4-9.9-23.6s3.3-17.2,9.9-23.6c6.6-6.4,14.7-9.6,24.4-9.6ZM458.3,119.9c-2.6,0-4.7.9-6.5,2.8-1.8,1.9-2.7,4.1-2.7,6.8s.9,4.9,2.7,6.8c1.8,1.9,4,2.8,6.5,2.8s4.8-.9,6.6-2.8c1.8-1.9,2.7-4.1,2.7-6.8s-.9-5-2.7-6.8c-1.8-1.9-4-2.8-6.6-2.8Z"/>
          <path class="cls-2" d="M589.8,161.6h-24v-34.5c0-2.7-.3-4.5-.8-5.5-.6-1-1.6-1.5-3-1.5-2.7,0-4,2.4-4,7.1v34.5h-24v-34.5c0-2.7-.3-4.5-.9-5.5-.6-1-1.6-1.5-3-1.5-2.7,0-4,2.4-4,7.1v34.5h-24v-39.4c0-7.2,2.4-13.3,7.2-18.3,4.8-5,10.7-7.5,17.6-7.5s13.5,3,19.1,9c6.3-6,12.6-9,18.9-9s14.4,2.9,19.2,8.7c3.8,4.5,5.7,11.1,5.7,19.8v36.7Z"/>
        </g>
      </g>
    </g>
  </g>
</svg>