<?xml version="1.0" encoding="UTF-8"?>
<svg xmlns="http://www.w3.org/2000/svg" xmlns:xlink="http://www.w3.org/1999/xlink" viewBox="0 0 878.5 188.5">
  <defs>
    <style>
      .cls-1, .cls-2 {
        fill: #90d39e;
      }

      .cls-2 {
        mix-blend-mode: lighten;
      }

      .cls-3 {
        fill: url(#linear-gradient-2);
      }

      .cls-4 {
        fill: url(#linear-gradient-10);
      }

      .cls-5 {
        fill: url(#linear-gradient-4);
      }

      .cls-6 {
        fill: url(#linear-gradient-3);
      }

      .cls-7 {
        fill: url(#linear-gradient-5);
      }

      .cls-8 {
        isolation: isolate;
      }

      .cls-9 {
        fill: url(#linear-gradient-8);
      }

      .cls-10 {
        fill: url(#linear-gradient-7);
      }

      .cls-11 {
        fill: url(#linear-gradient-9);
      }

      .cls-12 {
        fill: url(#linear-gradient-11);
      }

      .cls-13 {
        fill: url(#linear-gradient-6);
      }

      .cls-14 {
        fill: url(#linear-gradient);
      }
    </style>
    <linearGradient id="linear-gradient" x1="36" y1="96" x2="36" y2="0" gradientUnits="userSpaceOnUse">
      <stop offset="0" stop-color="#047469"/>
      <stop offset="1" stop-color="#20a63d"/>
    </linearGradient>
    <linearGradient id="linear-gradient-2" x1="25" y1="127.5" x2="147" y2="127.5" gradientUnits="userSpaceOnUse">
      <stop offset="0" stop-color="#20a63d"/>
      <stop offset="1" stop-color="#047469"/>
    </linearGradient>
    <linearGradient id="linear-gradient-3" x1="49.8" y1="187.5" x2="49.8" y2="66.4" xlink:href="#linear-gradient"/>
    <linearGradient id="linear-gradient-4" x1="50.2" y1="134.3" x2="133.9" y2="134.3" xlink:href="#linear-gradient"/>
    <linearGradient id="linear-gradient-5" x1="-35.9" y1="302.8" x2="85.6" y2="302.8" gradientTransform="translate(388.6 93.7) rotate(-100.9) scale(1 -1)" xlink:href="#linear-gradient"/>
    <linearGradient id="linear-gradient-6" x1="159.4" y1="130" x2="218.4" y2="130" xlink:href="#linear-gradient"/>
    <linearGradient id="linear-gradient-7" x1="224.3" y1="131.2" x2="336.7" y2="131.2" xlink:href="#linear-gradient"/>
    <linearGradient id="linear-gradient-8" x1="360.2" y1="130" x2="456.1" y2="130" xlink:href="#linear-gradient"/>
    <linearGradient id="linear-gradient-9" x1="473.7" y1="112.4" x2="586.2" y2="112.4" xlink:href="#linear-gradient"/>
    <linearGradient id="linear-gradient-10" x1="600.9" y1="131.1" x2="714.1" y2="131.1" xlink:href="#linear-gradient"/>
    <linearGradient id="linear-gradient-11" x1="730.9" y1="130.1" x2="878.5" y2="130.1" xlink:href="#linear-gradient"/>
  </defs>
  <g class="cls-8">
    <g id="Layer_1">
      <polygon class="cls-14" points="52.5 13.5 52.5 79.6 36.5 87.6 19.5 96 19.5 0 36.5 7 52.5 13.5"/>
      <path class="cls-3" d="M86,66.5c-33.7,0-61,27.3-61,61s27.3,61,61,61,61-27.3,61-61-27.3-61-61-61ZM86,161.5c-18.8,0-34-15.2-34-34s15.2-34,34-34,34,15.2,34,34-15.2,34-34,34Z"/>
      <polygon class="cls-2" points="36.5 7 36.5 87.6 19.5 96 19.5 0 36.5 7"/>
      <path class="cls-6" d="M99.5,68c-6.7.4-20.6,1.7-35.5,11.5-3.8,2.5-16.3,11.3-25,28-10.1,19.4-8.9,37.7-8,45-1,6.2-1.8,13.2-2,21-.1,5,0,9.7.2,14H0c-.1-5.6,0-14.4,1-25,2.6-25.6,6.2-58.9,29-79,15.6-13.8,35.3-17,50.2-17h0c8.7,0,15.8,1,19.3,1.5Z"/>
      <path class="cls-5" d="M117,168.5c-16.9,12.6-41,10-55-4-12-12.1-15.1-31.2-8.3-47.6-1.1,3.3-1.7,6.9-1.7,10.6,0,18.8,15.2,34,34,34s34-15.2,34-34-15.2-34-34-34-16.7,3.3-22.7,8.7c.6-.6,1.1-1.1,1.7-1.7,19.6-14.5,47.3-10.1,61,9,13.4,18.6,9.3,45.4-9,59Z"/>
      <path class="cls-2" d="M80.2,66.5c-6.9,4.3-17.4,9.9-32.2,17-10,6-33.7,31.4-33.7,103.7v.3H0c-.1-5.6,0-14.4,1-25,2.6-25.6,6.2-58.9,29-79,15.6-13.8,35.3-17,50.2-17Z"/>
      <path class="cls-7" d="M31.4,100c-13.3,27.6-3.1,61.2,20.8,77.3,20.5,13.8,48.5,13,70.1-1.2-4.5,2.5-9.4,4.3-14.6,5.3-26.8,5.1-52.6-12.4-57.8-39.2s12.4-52.6,39.2-57.8c26.8-5.1,56.2,11.9,57.8,39.2.7,12.4-2.1,23.7-8.2,33.7.7-.9,1.3-1.9,1.9-2.9,15.3-31.9,3.4-69.2-27.5-83.5-30.2-14-67.3-.8-81.6,29Z"/>
      <text/>
      <g>
        <path class="cls-13" d="M206.1,75.1c-14.2,0-25.5,4.6-34,13.9-8.5,9.2-12.7,21.6-12.7,37.2v58.8h40.4v-51c0-11.2,3.7-16.8,11-16.8s4.8.8,7.7,2.4v-43.2c-5-.8-9.1-1.2-12.3-1.2Z"/>
        <path class="cls-10" d="M321.6,90.5c-10-10.2-23.8-15.3-41.2-15.3s-28.9,5.4-39.8,16.3c-10.9,10.9-16.4,24.1-16.4,39.7s5.4,29.4,16.2,40c10.8,10.6,24.3,16,40.5,16s5.8-.3,9.1-.9v-41.8c-3,1.9-6.3,2.8-9.8,2.8s-7.9-1.4-10.7-4.3c-2.8-2.9-4.2-6.5-4.2-11s1.6-7.9,4.6-11c3.1-3.1,6.8-4.6,11-4.6s8.4,1.7,11.2,5.1c2.8,3.4,4.2,7.9,4.2,13.6v49.8h40.4v-52.8c0-17.6-5-31.5-15.1-41.7Z"/>
        <path class="cls-9" d="M445.2,91.8c-9.3-11.1-21.6-16.7-37-16.7s-24.8,4.8-34.1,14.4c-9.3,9.6-13.9,21.4-13.9,35.5v60h40.3v-60.8c0-6.2,2.5-9.3,7.6-9.3s7.7,3.1,7.7,9.3v60.8h40.4v-56.8c0-15.5-3.6-27.6-10.9-36.4Z"/>
        <path class="cls-11" d="M545.9,37.7v88.2c0,14.3-5.2,21.5-15.5,21.5s-8-1.5-11.1-4.5c-3.1-3-4.6-6.6-4.6-10.7s1.5-8,4.5-11.1c3-3.1,6.6-4.6,10.7-4.6s6.6,1.3,9.9,3.9v-44.5c-4.8-.4-8.4-.7-10.8-.7-15,0-27.9,5.5-38.9,16.6-10.9,11.1-16.4,24.2-16.4,39.4s5.5,28.9,16.5,39.7c11,10.8,24.5,16.2,40.6,16.2s4.3-.1,6.5-.4c5.8-.7,11.5-2.3,17.1-4.9,7.7-3.5,14-8.3,18.9-14.2,8.6-10.4,12.9-23.8,12.9-40.2V37.7h-40.3Z"/>
        <path class="cls-4" d="M697.8,91.6c-10.9-11-24-16.4-39.2-16.4s-29.9,5.4-41,16.1c-11.1,10.8-16.6,24-16.6,39.8s5.5,28.7,16.6,39.7c11.1,11,24.4,16.5,40,16.5s28.9-5.5,40-16.4c11-10.9,16.6-24.2,16.6-39.7s-5.5-28.5-16.3-39.4ZM668.5,142.6c-3.1,3.2-6.7,4.8-11.1,4.8s-7.9-1.6-10.9-4.8c-3.1-3.2-4.6-7-4.6-11.4s1.5-8.4,4.5-11.5c3-3.1,6.7-4.7,11-4.7s8.1,1.6,11.1,4.7c3,3.1,4.5,7,4.5,11.5s-1.5,8.3-4.6,11.4Z"/>
        <path class="cls-12" d="M868.9,89.9c-7.8-9.3-17.9-14.2-30.5-14.6h0c-.6,0-1.2,0-1.8,0-10.6,0-21.2,5-31.7,15.1-9.5-10.1-20.2-15.1-32.1-15.1s-21.4,4.2-29.6,12.7c-8.1,8.5-12.2,18.7-12.2,30.8v66.2h40.4v-57.9c0-8,2.2-12,6.7-12s4.2.9,5.1,2.6c1,1.7,1.5,4.8,1.5,9.3v58h40.3v-57.9c0-8,2.3-12,6.8-12s4.1.9,5.1,2.6c.9,1.7,1.4,4.8,1.4,9.3v58h40.3v-61.7c0-14.6-3.2-25.7-9.6-33.3Z"/>
      </g>
      <path class="cls-1" d="M218.4,113v6.5c-2.8-1.6-5.4-2.4-7.7-2.4-7.3,0-11,5.6-11,16.8v51h-5.9c0-48-3.2-66,9.8-72s14.9,0,14.9,0Z"/>
      <path class="cls-1" d="M336.7,132.2v52.8h-10.1v-53c0-39-24-51-46.1-56.8,17.4,0,31.1,5.1,41.2,15.3,10,10.2,15.1,24.1,15.1,41.7Z"/>
      <path class="cls-1" d="M455.5,132v53c.1,0-10,0-10,0v-53c0-39-24-51-46.1-56.8,17.4,0,31.1-.2,46.1,16.8,9.5,10.7,9.9,23.8,10,40Z"/>
      <path class="cls-1" d="M586.2,37.7v89.7c0,16.5-4.3,29.9-12.9,40.2-5,6-11.3,10.7-18.9,14.2-5.6,2.6-11.3,4.2-17.1,4.9-.2-.6-.5-1.2-.7-1.7,49-14,35.7-96,35.7-147.3h14Z"/>
      <path class="cls-1" d="M714.1,131c0,15.5-5.5,28.8-16.6,39.7-11,10.9-24.4,16.4-40,16.4,4.8-1.3,29.5-8.5,40-31.1,4.5-9.8,4.9-19.1,5-23,.2-5.6.4-19.4-8-33-11.6-18.8-31.5-23.9-36-24.9,15.2,0,28.3,5.5,39.2,16.4,10.9,11,16.3,24.1,16.3,39.4Z"/>
      <path class="cls-1" d="M878.5,123.2v61.7h-10v-58c0-34-11-43-30.1-51.7,12.6.4,22.8,5.3,30.5,14.6,6.4,7.6,9.6,18.7,9.6,33.3Z"/>
    </g>
  </g>
</svg>