<?xml version="1.0" encoding="UTF-8"?>
<svg id="Layer_1" xmlns="http://www.w3.org/2000/svg" viewBox="0 0 301.5 83">
  <defs>
    <style>
      .cls-1, .cls-2 {
        fill: #20a63d;
      }

      .cls-1, .cls-3 {
        isolation: isolate;
      }

      .cls-1, .cls-4 {
        mix-blend-mode: color;
      }

      .cls-5 {
        fill: #4d4d4d;
      }

      .cls-6 {
        fill: #fff;
      }

      .cls-7 {
        fill: #666;
      }
    </style>
  </defs>
  <g class="cls-3">
    <g id="Layer_1-2" data-name="Layer_1">
      <rect class="cls-7" width="83" height="83" rx="21.1" ry="21.1"/>
      <path class="cls-5" d="M83,26.5v35.3c0,11.7-9.5,21.1-21.1,21.1h-20.1c-.2-.1-.3-.2-.3-.2l-26.5-13.6s-5-35.4-3-55.4c15,0,46.4-2.5,50-1,2.9,1.1,11.9,6.4,21,13.7v.1Z"/>
      <path class="cls-6" d="M58.2,24.2c2.4.7,4,3.1,3.6,5.4-.3,2-1.9,3.7-4.1,4.1l-33.9.2h-2.5v4.6c0,7.4.3,9.4.3,16.1-.1.2-.1,2.4.5,4,.5,1.3,1.8,2.3,3.3,2.4h24.6c3.3-.9,5.6-4,5.6-7.3,0-3.6-2.7-6.7-6.3-7.3h-14.1c-.2,0-.5,0-.8.3-.1,0-.4.2-.5.5-.2.3-.2.5-.3.8v.5c.1.2.5.3.5.3h14.9c2.4.5,4,2.8,3.8,5.2-.2,2.3-2,4.1-4.3,4.3h-20.2c-.7.1-2,.5-3-.5-.9-.8-.8-2.2-.7-3.3.2-3.5.4-12.4.2-14.7,0-.4,0-1.5.6-2.3.2-.3.5-.5.8-.6,1-.6,2.1-.6,2.4-.5h28c4.1.3,7.7-2.8,7.9-6.8.2-3.9-2.8-7.3-6.8-7.6H15.4c-2.6-.4-4.5-2.8-4.3-5.4s2.5-4.7,5.2-4.6c11.2,0,33.5.2,44.7.3,8.2,2.3,13.6,9.7,13.3,17.7-.3,6.7-4.6,12.8-11.1,15.5.4.8,4.2,7.8.8,15.5-2.6,5.7-8.2,9.6-14.7,10.1-11.5,0-16-.2-27.5-.3-4.4.3-10.6-1.7-10.6-8.7s.2-2,.1-9c0-10,.2-16,.2-26.4.1-.3.6-1.3,1.6-1.9,1.2-.7,2.4-.6,2.7-.5h42.4v-.1Z"/>
      <rect class="cls-1" width="83" height="83" rx="21.1" ry="21.1"/>
      <g class="cls-4">
        <path class="cls-2" d="M99.8,25.3h10.8c6.4,0,9.6,2.5,9.6,7.6s-1.1,4.6-3.3,6.2c3.2,1.4,4.8,3.8,4.8,7.4s-.9,4.9-2.8,6.5c-.9.8-1.9,1.3-2.9,1.6-1,.3-2.5.5-4.2.5h-1.7v-7.6h1.5c.9,0,1.5-.1,1.9-.3s.5-.6.5-1.2c0-1-.7-1.4-2.2-1.4h-1.7v-7.9c1.6,0,2.4-.6,2.4-1.7s-.7-1.5-2.2-1.5h-1.6v21.7h-8.8v-29.7l-.1-.2Z"/>
        <path class="cls-2" d="M134.1,33.3v21.7h-8.8v-29.7h11.3c3.5,0,6.1.9,8,2.6,2.1,1.9,3.2,4.3,3.2,7.3s-1.3,5.5-3.9,7.6l5.1,12.3h-9.3l-4.3-9.6v-7.6h.7c1.9,0,2.8-.8,2.8-2.4s-1.1-2.1-3.2-2.1h-1.6v-.1Z"/>
        <path class="cls-2" d="M162.7,40.1v7.8h-2.5v7.1h-8.8v-18.9c0-3.7,1-6.5,3-8.5s4.8-3,8.4-3,6.1.9,7.7,2.8c1.7,1.8,2.5,4.7,2.5,8.5v19.2h-8.8v-18.6c0-1.2-.1-2-.4-2.4s-.8-.7-1.5-.7c-1.4,0-2.1,1-2.1,3.1v3.7h2.5v-.1Z"/>
        <path class="cls-2" d="M177.7,55v-19.3c0-3.4,1-6.1,3-8.1s4.7-3,8.1-3,5.9,1,7.7,3,2.7,4.8,2.7,8.5v19h-8.8v-19c0-1.8-.6-2.7-1.9-2.7s-1.9.9-1.9,2.7v19h-8.8l-.1-.1Z"/>
        <path class="cls-2" d="M213.4,33.8v21.2h-8.8v-29.7h11.5c5.1,0,9,1.1,11.9,3.4,3.4,2.7,5.1,6.5,5.1,11.2s-1.5,8.2-4.4,11-6.6,4.3-11.2,4.3-1.4,0-2.6,0v-8.7h1.4c5.2,0,7.7-2.2,7.7-6.5s-2.5-6.1-7.6-6.1h-3v-.1Z"/>
        <path class="cls-2" d="M251.3,24.5c4.2,0,7.8,1.5,10.8,4.6s4.5,6.7,4.5,11-1.5,8-4.5,11.1c-3,3-6.7,4.5-11.1,4.5s-8-1.5-11-4.6c-3-3-4.6-6.7-4.6-11s1.5-8,4.6-11.1,6.8-4.5,11.3-4.5h0ZM251,33.3c-1.8,0-3.4.7-4.6,2-1.3,1.3-1.9,2.9-1.9,4.8s.6,3.5,1.9,4.8,2.8,2,4.6,2,3.4-.7,4.6-2c1.3-1.3,1.9-2.9,1.9-4.8s-.6-3.5-1.9-4.8-2.8-2-4.6-2Z"/>
        <path class="cls-2" d="M270.2,55v-21.4c0-2.7.8-4.8,2.4-6.5s3.7-2.5,6.3-2.5,5.4,1.4,7,4.2c1-1.5,2.1-2.6,3.2-3.2s2.6-1,4.2-1c2.7,0,4.7.8,6.1,2.5s2.1,4.1,2.1,7.3v20.7h-8.8v-19.3c0-1,0-1.6-.2-1.9s-.5-.5-.9-.5c-.9,0-1.3.7-1.3,2.2v19.5h-8.8v-19.3c0-.9,0-1.6-.2-1.9s-.5-.5-.9-.5c-.9,0-1.3.8-1.3,2.4v19.3h-8.8l-.1-.1Z"/>
      </g>
    </g>
  </g>
</svg>