<?xml version="1.0" encoding="UTF-8"?>
<svg xmlns="http://www.w3.org/2000/svg" viewBox="0 0 878.5 188.5">
  <defs>
    <style>
      .cls-1, .cls-2 {
        fill: #90d39e;
      }

      .cls-3, .cls-2 {
        mix-blend-mode: lighten;
      }

      .cls-4 {
        isolation: isolate;
      }
    </style>
  </defs>
  <g class="cls-4">
    <g id="Layer_1">
      <polygon class="cls-2" points="52.5 13.5 52.5 79.6 36.5 87.6 19.5 96 19.5 0 36.5 7 52.5 13.5"/>
      <path class="cls-2" d="M86,66.5c-33.7,0-61,27.3-61,61s27.3,61,61,61,61-27.3,61-61-27.3-61-61-61ZM86,161.5c-18.8,0-34-15.2-34-34s15.2-34,34-34,34,15.2,34,34-15.2,34-34,34Z"/>
      <path class="cls-2" d="M99.5,68c-6.7.4-20.6,1.7-35.5,11.5-3.8,2.5-16.3,11.3-25,28-10.1,19.4-8.9,37.7-8,45-1,6.2-1.8,13.2-2,21-.1,5,0,9.7.2,14H0c-.1-5.6,0-14.4,1-25,2.6-25.6,6.2-58.9,29-79,15.6-13.8,35.3-17,50.2-17h0c8.7,0,15.8,1,19.3,1.5Z"/>
      <text/>
      <g class="cls-3">
        <path class="cls-1" d="M206.1,75.1c-14.2,0-25.5,4.6-34,13.9-8.5,9.2-12.7,21.6-12.7,37.2v58.8h40.4v-51c0-11.2,3.7-16.8,11-16.8s4.8.8,7.7,2.4v-43.2c-5-.8-9.1-1.2-12.3-1.2Z"/>
        <path class="cls-1" d="M321.6,90.5c-10-10.2-23.8-15.3-41.2-15.3s-28.9,5.4-39.8,16.3c-10.9,10.9-16.4,24.1-16.4,39.7s5.4,29.4,16.2,40c10.8,10.6,24.3,16,40.5,16s5.8-.3,9.1-.9v-41.8c-3,1.9-6.3,2.8-9.8,2.8s-7.9-1.4-10.7-4.3c-2.8-2.9-4.2-6.5-4.2-11s1.6-7.9,4.6-11c3.1-3.1,6.8-4.6,11-4.6s8.4,1.7,11.2,5.1c2.8,3.4,4.2,7.9,4.2,13.6v49.8h40.4v-52.8c0-17.6-5-31.5-15.1-41.7Z"/>
        <path class="cls-1" d="M445.2,91.8c-9.3-11.1-21.6-16.7-37-16.7s-24.8,4.8-34.1,14.4c-9.3,9.6-13.9,21.4-13.9,35.5v60h40.3v-60.8c0-6.2,2.5-9.3,7.6-9.3s7.7,3.1,7.7,9.3v60.8h40.4v-56.8c0-15.5-3.6-27.6-10.9-36.4Z"/>
        <path class="cls-1" d="M545.9,37.7v88.2c0,14.3-5.2,21.5-15.5,21.5s-8-1.5-11.1-4.5c-3.1-3-4.6-6.6-4.6-10.7s1.5-8,4.5-11.1c3-3.1,6.6-4.6,10.7-4.6s6.6,1.3,9.9,3.9v-44.5c-4.8-.4-8.4-.7-10.8-.7-15,0-27.9,5.5-38.9,16.6-10.9,11.1-16.4,24.2-16.4,39.4s5.5,28.9,16.5,39.7c11,10.8,24.5,16.2,40.6,16.2s4.3-.1,6.5-.4c5.8-.7,11.5-2.3,17.1-4.9,7.7-3.5,14-8.3,18.9-14.2,8.6-10.4,12.9-23.8,12.9-40.2V37.7h-40.3Z"/>
        <path class="cls-1" d="M697.8,91.6c-10.9-11-24-16.4-39.2-16.4s-29.9,5.4-41,16.1c-11.1,10.8-16.6,24-16.6,39.8s5.5,28.7,16.6,39.7c11.1,11,24.4,16.5,40,16.5s28.9-5.5,40-16.4c11-10.9,16.6-24.2,16.6-39.7s-5.5-28.5-16.3-39.4ZM668.5,142.6c-3.1,3.2-6.7,4.8-11.1,4.8s-7.9-1.6-10.9-4.8c-3.1-3.2-4.6-7-4.6-11.4s1.5-8.4,4.5-11.5c3-3.1,6.7-4.7,11-4.7s8.1,1.6,11.1,4.7c3,3.1,4.5,7,4.5,11.5s-1.5,8.3-4.6,11.4Z"/>
        <path class="cls-1" d="M868.9,89.9c-7.8-9.3-17.9-14.2-30.5-14.6h0c-.6,0-1.2,0-1.8,0-10.6,0-21.2,5-31.7,15.1-9.5-10.1-20.2-15.1-32.1-15.1s-21.4,4.2-29.6,12.7c-8.1,8.5-12.2,18.7-12.2,30.8v66.2h40.4v-57.9c0-8,2.2-12,6.7-12s4.2.9,5.1,2.6c1,1.7,1.5,4.8,1.5,9.3v58h40.3v-57.9c0-8,2.3-12,6.8-12s4.1.9,5.1,2.6c.9,1.7,1.4,4.8,1.4,9.3v58h40.3v-61.7c0-14.6-3.2-25.7-9.6-33.3Z"/>
      </g>
    </g>
  </g>
</svg>